<?xml version="1.0" encoding="UTF-8" standalone="no"?>
<!-- Created with Inkscape (http://www.inkscape.org/) -->
<svg id="svg2" xmlns:rdf="http://www.w3.org/1999/02/22-rdf-syntax-ns#" xmlns="http://www.w3.org/2000/svg" height="86.71mm" width="91.683mm" version="1.1" xmlns:cc="http://creativecommons.org/ns#" xmlns:dc="http://purl.org/dc/elements/1.1/" viewBox="0 0 324.8594 307.24132">
 <metadata id="metadata7">
  <rdf:RDF>
   <cc:Work rdf:about="">
    <dc:format>image/svg+xml</dc:format>
    <dc:type rdf:resource="http://purl.org/dc/dcmitype/StillImage"/>
    <dc:title/>
   </cc:Work>
  </rdf:RDF>
 </metadata>
 <g id="layer1" transform="translate(-203.75 -170.84)">
  <path id="path3436" d="m206.25 476.2c0-1.6569 18.542-1.875 159.38-1.875 140.83 0 159.38 0.21814 159.38 1.875s-18.542 1.875-159.38 1.875c-140.83 0-159.38-0.21814-159.38-1.875zm0.51744-11.771c-0.28459-0.28645-0.51744-5.2083-0.51744-10.938v-10.417h10.566c14.639 0 21.084 3.4732 16.285 8.7763-1.7604 1.9452-1.7634 2.2399-0.0301 2.905 2.784 1.0683 2.4148 6.7207-0.54225 8.3033-2.3632 1.2647-24.686 2.4515-25.761 1.3696zm16.946-5.0553c2.3498-1.4861 1.4661-2.3253-3.4924-3.317-3.4651-0.69302-3.9714-0.45565-3.9714 1.862 0 2.8755 3.9884 3.653 7.4638 1.4551zm-1.941-8.3076c3.2647-1.2528 2.2344-2.9913-1.7728-2.9913-2.5 0-3.75 0.625-3.75 1.875 0 1.9626 2.1729 2.4017 5.5228 1.1163zm21.428 13.542c-0.38517-0.38518-0.7003-5.3878-0.7003-11.117v-10.417h14.375c13.542 0 14.375 0.14492 14.375 2.5 0 2.2778-0.83333 2.5-9.375 2.5-5.4167 0-9.375 0.52778-9.375 1.25 0 0.6875 2.7523 1.25 6.1163 1.25 4.4378 0 6.3256 0.5455 6.8791 1.9878 1.2572 3.2764-0.32 4.2622-6.8191 4.2622-3.3969 0-6.1762 0.5625-6.1762 1.25 0 0.73006 4.1956 1.25 10.087 1.25 9.5126 0 10.064 0.14811 9.6875 2.6014-0.37292 2.4287-1.328 2.6273-14.387 2.992-7.693 0.2148-14.302 0.0754-14.688-0.30975zm37.546 0.0464c-0.4107-0.41065-0.74672-5.4526-0.74672-11.204v-10.458l14.062 0.35344c11.51 0.28928 14.062 0.69383 14.062 2.2284 0 1.4605-2.0035 1.9562-9.0625 2.2423-10.165 0.41193-12.251 2.4162-3.125 3.0018 4.9772 0.31936 5.9375 0.78534 5.9375 2.881 0 2.0956-0.96033 2.5616-5.9375 2.881-9.5328 0.61168-6.8311 2.744 3.4767 2.744 7.332 0 9.5779 0.42662 10.154 1.9289 0.40711 1.0609 0.48235 2.1868 0.1672 2.5019-0.89306 0.89305-28.15 1.7386-28.989 0.89923zm36.307 0.057c-0.44203-0.44202-0.80368-5.5439-0.80368-11.337v-10.534l12.372 0.42962c10.014 0.34777 12.873 0.88341 15 2.8109 3.6175 3.2776 3.2972 5.3737-1.2432 8.1349l-3.8715 2.3544 3.8715 2.8623c5.4288 4.0137 4.9845 5.8707-1.2975 5.4232-3.7647-0.26816-6.2429-1.4091-9.122-4.1996-2.1742-2.1073-4.3125-3.8314-4.7518-3.8314-0.43934 0-0.97505 1.8167-1.1905 4.0371-0.3414 3.5188-0.89039 4.0767-4.2755 4.3453-2.1361 0.16951-4.2455-0.0535-4.6875-0.49548zm17.946-14.762c0-1.3095-1.3194-1.875-4.375-1.875s-4.375 0.56548-4.375 1.875 1.3194 1.875 4.375 1.875 4.375-0.56547 4.375-1.875zm36.548 14.062c-1.4082-1.7484-10.298-19.256-10.298-20.281 0-0.36091 2.1736-0.6562 4.8302-0.6562 4.5731 0 4.9445 0.29941 6.9784 5.625 1.1815 3.0938 2.5521 5.625 3.0457 5.625 0.49365 0 2.1273-2.5312 3.6304-5.625 2.4379-5.018 3.1887-5.625 6.9574-5.625 3.9135 0 4.4242 0.48037 6.936 6.5243l2.7114 6.5243 3.0228-6.5243c2.8127-6.0709 3.3308-6.5243 7.4553-6.5243 2.4379 0 4.4325 0.22524 4.4325 0.50054s-2.2456 5.3843-4.9903 11.353l-4.9903 10.853-4.6972-0.68107c-2.5835-0.3746-4.7225-0.70232-4.7535-0.72829-0.0309-0.026-1.1001-2.5785-2.3759-5.6722-1.2758-3.0938-2.6844-5.625-3.1302-5.625-0.44579 0-1.5203 1.9628-2.3878 4.3619-0.86751 2.399-2.4269 5.2115-3.4654 6.25-2.2898 2.2898-7.1858 2.4687-8.9119 0.32563zm45.191-0.21728c-0.3333-0.86854-0.43894-5.7453-0.23478-10.837l0.37121-9.258 14.062-0.35344c13.421-0.33731 14.062-0.23746 14.062 2.1875 0 2.3105-0.78674 2.5409-8.6762 2.5409-10.29 0-13.124 2.1956-3.544 2.746 5.6356 0.32382 6.5952 0.74274 6.5952 2.879 0 2.0956-0.96032 2.5616-5.9375 2.881-9.556 0.61317-6.8192 2.744 3.5244 2.744 8.8496 0 9.4361 0.16665 9.0625 2.5748-0.37121 2.3928-1.3988 2.6066-14.54 3.0247-10.577 0.3365-14.293 0.0519-14.746-1.1293zm37.582 0.68417c-0.31407-0.31408-0.57105-5.2586-0.57105-10.988v-10.417h14.375c13.542 0 14.375 0.14492 14.375 2.5 0 2.2778-0.83334 2.5-9.375 2.5-5.4167 0-9.375 0.52778-9.375 1.25 0 0.6875 2.8125 1.25 6.25 1.25 5.8333 0 6.25 0.20834 6.25 3.125s-0.41666 3.125-6.25 3.125c-10.096 0-7.1562 2.3607 3.4375 2.7599 8.4634 0.31895 9.6875 0.65749 9.6875 2.6793 0 2.1017-1.2962 2.3359-14.116 2.5502-7.764 0.12981-14.373-0.021-14.688-0.33502zm36.577 0.3274c-0.49416-0.49415-0.89846-5.6183-0.89846-11.387v-10.489l5.3125 0.38438c4.9232 0.35621 5.3583 0.68072 5.9375 4.4287l0.625 4.0443 5.4884-4.3568c4.1257-3.275 6.6862-4.3568 10.312-4.3568 2.6532 0 4.8241 0.486 4.8241 1.08s-2.25 2.6392-5 4.545-5 3.9519-5 4.5471c0 0.59515 2.8129 3.103 6.2509 5.5729 3.438 2.47 5.9722 4.9419 5.6314 5.4931-1.6016 2.5914-10.46 0.35126-16.687-4.22l-6.4449-4.731v4.4815c0 2.4648-0.14062 4.5027-0.3125 4.5287-7.1559 1.081-9.2998 1.1739-10.039 0.43458zm-277.65-26.75c-1.9805-0.60007-4.9336-2.3431-6.5625-3.8733-2.7892-2.6204-2.9616-3.6363-2.9616-17.453v-14.671l3.7868-3.1864c4.6999-3.9547 10.967-5.2237 16.606-3.3626 5.6629 1.8689 8.1995 4.8467 8.6304 10.131 0.33937 4.1625 0.18114 4.3346-4.3279 4.708-3.994 0.33071-4.8939-0.0816-6.1381-2.8125-1.6548-3.6318-6.5774-4.4037-7.798-1.2228-0.9846 2.5658-0.9846 18.48 0 21.046 1.3594 3.5424 6.3517 2.3932 7.8129-1.7985 1.1896-3.4124 1.7726-3.7411 6.0598-3.416 5.6205 0.42613 6.7199 3.4526 3.5096 9.6608-2.8078 5.4297-11.592 8.3792-18.617 6.2508zm26.726-21.22v-21.25h5 5v16.25 16.25h9.375 9.375v5 5h-14.375-14.375v-21.25zm34.302 19.635c-0.34085-0.88824-0.46382-10.31-0.27327-20.938l0.34646-19.323 14.688-0.35218 14.688-0.35216v4.4147 4.4147h-9.375-9.375v3.6847c0 3.5637 0.21547 3.6971 6.5625 4.0625 6.3744 0.36701 6.5625 0.48533 6.5625 4.1278s-0.18813 3.7608-6.5625 4.1278c-6.347 0.36541-6.5625 0.4988-6.5625 4.0625v3.6847h10 10v5 5h-15.039c-11.139 0-15.2-0.41884-15.659-1.615zm46.189 0.14825c-0.7115-1.1512-7.2984-21.448-12.632-38.926-0.60656-1.9875-0.0153-2.219 4.7872-1.875l5.4792 0.39251 3.9396 13.125 3.9396 13.125 4.1231-13.438 4.1231-13.438h4.5414c2.4978 0 4.8356 0.2942 5.1952 0.65378 0.59742 0.59742-10.724 38.351-12.233 40.791-0.98845 1.5994-10.229 1.2614-11.263-0.41196zm27.528-0.2324c-0.35862-0.93452-0.48159-10.356-0.27328-20.938l0.37875-19.238 14.54-0.35089 14.54-0.3509 0.55706 3.7955c0.30638 2.0875 0.27901 4.0736-0.0609 4.4134-0.33978 0.33984-4.7428 0.61789-9.7845 0.61789h-9.1667v3.75c0 3.7121 0.0695 3.75 6.875 3.75h6.875v4.375 4.375h-6.875c-6.8056 0-6.875 0.0379-6.875 3.75v3.75h10 10v5 5h-15.039c-11.523 0-15.192-0.39724-15.691-1.6991zm36.98-19.551v-21.25h5 5v16.25 16.25h9.375 9.375v5 5h-14.375-14.375v-21.25zm31.25 19.068c0-1.2833 2.454-10.739 5.4533-21.013l5.4533-18.68 6.3486-0.37529 6.3486-0.3753 3.7251 12.25c9.9446 32.703 9.8419 31.083 1.9113 30.156-2.7277-0.31884-3.6947-1.2756-4.5163-4.4682-0.99795-3.8778-1.3198-4.0625-7.0789-4.0625-5.7361 0-6.0905 0.20021-7.1914 4.0625-1.007 3.533-1.7638 4.1131-5.8058 4.4505-3.8424 0.32071-4.6478-0.0164-4.6478-1.9453zm20.565-18.13c-0.48596-2.2344-1.4473-5.4688-2.1362-7.1875-1.187-2.9613-1.3411-2.7977-2.9416 3.125-2.2452 8.3085-2.2929 8.125 2.1121 8.125 3.6907 0 3.8129-0.16736 2.9657-4.0625zm20.268 19.479c-0.45834-0.45832-0.83334-10.053-0.83334-21.322v-20.489l5.1662 0.38437c4.9943 0.37159 5.3582 0.70587 10.938 10.047l5.7713 9.6624 0.36305-9.9749 0.36305-9.9749h4.9797 4.9797l-0.34273 20.938-0.34272 20.938h-4.297c-4.0993 0-4.588-0.5113-10.625-11.114l-6.328-11.114-0.35941 11.427-0.3594 11.427h-4.1198c-2.2659 0-4.4948-0.375-4.9531-0.83334zm39.01-17.745c-0.0859-10.407-0.22656-19.906-0.3125-21.109-0.23445-3.2823 16.813-3.7644 22.951-0.64906 5.9835 3.0367 7.4775 6.7608 7.499 18.693 0.0312 17.324-2.1676 19.762-19.044 21.112l-10.938 0.87525-0.15625-18.922zm16.488 8.5341c2.0717-1.1088 2.4178-2.6833 2.4178-11 0-10.376-1.0775-12.706-5.875-12.706-2.7946 0-2.875 0.32609-2.875 11.667 0 13.821 0.65982 15.075 6.3322 12.039zm-242.62-44.63c-7.453-5.625-27.327-20.22-49.656-36.465-4.9844-3.6263-9.0539-7.2432-9.0434-8.0375 0.067-5.057 2.5886-4.0233 20.025 8.2086 33.566 23.547 39.19 27.238 40.059 26.291 0.47628-0.51911 4.8666-8.3408 9.7564-17.381 12.114-22.398 12.058-26.83-0.42703-33.468-6.1253-3.2568-14.86-4.3117-16.308-1.9694-1.5802 2.5569-3.125 1.1198-3.125-2.9071 0-2.7131-0.97693-5.0535-2.8125-6.7377-4.8138-4.4169-17.325-10.355-21.816-10.355h-4.277l3.4017-6.25c1.8709-3.4375 3.957-6.25 4.6357-6.25 1.0113 0 31.408 15.453 55.757 28.346 3.0322 1.6056 5.5635 2.7751 5.625 2.599 0.20806-0.59555 10.262-19.112 16.631-30.631l4.3192-7.8111-5.9087-2.5328c-3.2498-1.393-6.021-2.378-6.1583-2.1889-0.13727 0.18916-2.6402 4.7249-5.5622 10.079-5.9382 10.882-5.4182 10.725-16.73 5.0394-3.3113-1.6644-5.8394-3.4197-5.6178-3.9006 0.22153-0.48088 1.9842-3.8834 3.9172-7.5611 1.9329-3.6777 3.3359-6.7982 3.1178-6.9344-1.5159-0.94658-7.6098-3.2538-8.5939-3.2538-0.66262 0-2.7221 3.0938-4.5766 6.875s-3.8156 6.875-4.3581 6.875c-2.322 0-17.243-7.8008-17.243-9.0147 0-0.73358 1.7226-4.1333 3.8279-7.555 3.8737-6.2956 4.0787-9.6803 0.5863-9.6803-2.6248 0-2.3995-2.0576 0.70226-6.4136 2.101-2.9506 2.3171-4.0352 1.097-5.5055-0.83576-1.007-1.119-1.8309-0.62935-1.8309 0.77142 0 61.576 20.941 67.063 23.096 1.5686 0.61615 3.9293-2.5159 10.525-13.963 4.6766-8.1168 9.5323-16.251 10.79-18.076 1.2581-1.8249 2.2874-3.5969 2.2874-3.9378 0-0.75979-12.489-3.8315-13.001-3.1976-0.20131 0.24935-1.8862 3.2659-3.7442 6.7034-6.108 11.301-5.4009 10.911-14.993 8.2518-4.6059-1.2772-8.6682-2.616-9.0274-2.9752-0.35917-0.35916 0.78759-3.496 2.5484-6.9707l3.2014-6.3176-4.6245-1.2769c-5.0866-1.4045-4.9798-1.4798-9.184 6.4761-1.3624 2.5781-2.8875 4.6947-3.3892 4.7035-3.3981 0.0597-19.421-4.5619-19.87-5.7312-0.30439-0.79323 1.4018-4.7537 3.7916-8.801 4.0892-6.9255 4.1992-7.3956 1.8692-7.9838-2.969-0.74951-2.9978-0.91286-0.95241-5.402 1.3478-2.9581 1.316-3.7111-0.19691-4.6684-3.2811-2.076 2.3321-1.3356 28.196 3.7186 13.75 2.687 28.656 5.5094 33.125 6.2721 4.4688 0.76266 9.3277 1.65 10.798 1.9719 2.2688 0.49678 3.6601-1.1607 9.2056-10.966 4.4085-7.795 6.74-13.468 7.1696-17.445 0.77802-7.2022-0.0786-7.6992-16.633-9.6473-17.522-2.062-20.91-1.8113-24.848 1.8386-2.465 2.2845-4.1781 2.9342-6.12 2.3211-6.0663-1.9152-21.152-9.3304-20.437-10.045 0.42302-0.42302 7.9625-0.1136 16.754 0.68759 8.7919 0.80119 27.958 2.5514 42.59 3.8893 14.633 1.3379 27.57 2.9633 28.75 3.6119 1.1797 0.64864 5.2387 4.3939 9.02 8.3228 3.7812 3.9289 9.6875 9.245 13.125 11.814 3.4375 2.5685 7.5596 6.0878 9.1602 7.8205l2.9102 3.1504-17.666 35.066-17.666 35.066 1.5414 5.1447c1.7224 5.749 3.9851 7.3183 15.291 10.605l7.287 2.1184 10.822-5.3956c10.077-5.0246 11.648-5.4293 22.838-5.8859 18.642-0.76067 27.792 2.5925 47.368 17.359 15.556 11.734 25.178 24.119 30.049 38.678 5.1086 15.27 1.1847 40.004-6.582 41.489-1.6877 0.32262-32.655 0.32515-68.816 0.005l-65.747-0.58098-0.74944-4.5192c-0.41219-2.4856-0.60902-9.1448-0.43741-14.798 0.26479-8.7233-0.0774-10.804-2.2606-13.75-4.3817-5.911-12.781-11.595-17.134-11.595-3.8862 0-4.2306 0.49565-15.592 22.436-6.7572 13.05-12.506 22.684-13.741 23.029-1.1681 0.32598-8.3112 0.96042-15.874 1.4099-17.233 1.0242-25.628 1.6532-34.406 2.578-6.7683 0.71305-7.0675 0.60571-15-5.3812zm-4.969-29.992c-1.0312-0.39754-3.9998-2.0574-6.5968-3.6887l-4.7218-2.9659 3.8444-5.5876c2.1144-3.0732 4.7523-5.5876 5.862-5.5876 2.8566 0 12.862 6.0661 12.862 7.798 0 2.2358-6.4196 10.964-7.9825 10.853-0.76587-0.0543-2.2362-0.42395-3.2675-0.82149zm-28.125-18.078c-1.375-0.78218-4.6175-2.746-7.2056-4.3641-4.5678-2.8558-4.6532-3.0418-2.9186-6.3523 0.98286-1.8757 2.996-4.6914 4.4736-6.2571l2.6866-2.8467 6.3154 3.4373c3.4735 1.8905 6.5824 4.133 6.9087 4.9833 0.42391 1.1047-6.7764 13.193-7.6596 12.86-0.0553-0.0209-1.2256-0.67798-2.6006-1.4602zm100.86-135.07c-2.963-0.60844-5.1983-1.4884-4.9674-1.9554 4.8407-9.791 5.2235-10.224 9.0236-10.21 7.0527 0.0253 13.417 1.5811 14.136 3.4556 0.39194 1.0214-0.30412 3.7449-1.5468 6.0524-1.9684 3.6551-2.8389 4.1676-6.7589 3.9797-2.4747-0.11863-6.9237-0.71353-9.8867-1.322zm-34.613-6.8706c-4.8125-1.0707-9.01-2.1663-9.3277-2.4347-0.31773-0.2684 0.13644-1.6315 1.0093-3.0291 1.2239-1.9597 1.2495-2.9477 0.11213-4.3182-1.036-1.2483-1.0623-1.777-0.0883-1.777 2.1488 0 25.17 11.691 25.17 12.782 0 1.4649-7.1087 0.94963-16.875-1.2231z" fill="#f4f4f1"/>
  <g fill="#f4f4f1">
   <path id="path3434" d="m245.31 464.71c1.2031-0.3144 3.1719-0.3144 4.375 0 1.2031 0.31441 0.21875 0.57166-2.1875 0.57166s-3.3906-0.25725-2.1875-0.57166zm38.774-0.005c1.2162-0.31693 2.9037-0.29609 3.75 0.0464 0.84629 0.34241-0.14879 0.60172-2.2113 0.57624-2.0625-0.0255-2.7549-0.30562-1.5387-0.62255zm90.679 0.0125c0.90233-0.36109 1.9805-0.31669 2.3958 0.0986 0.41537 0.41536-0.32292 0.7108-1.6406 0.65653-1.4562-0.06-1.7524-0.35618-0.75521-0.7552zm46.25 0c0.90233-0.36109 1.9805-0.31669 2.3958 0.0986 0.41537 0.41536-0.32292 0.7108-1.6406 0.65653-1.4562-0.06-1.7524-0.35618-0.75521-0.7552zm7.4219 0.026c0.85938-0.34677 2.2656-0.34677 3.125 0 0.85938 0.34676 0.15625 0.63049-1.5625 0.63049s-2.4219-0.28373-1.5625-0.63049zm35.078-0.026c0.90233-0.36109 1.9805-0.31669 2.3958 0.0986 0.41537 0.41536-0.32292 0.7108-1.6406 0.65653-1.4562-0.06-1.7524-0.35618-0.75521-0.7552zm28.672 0.026c0.85938-0.34677 2.2656-0.34677 3.125 0 0.85938 0.34676 0.15625 0.63049-1.5625 0.63049s-2.4219-0.28373-1.5625-0.63049z"/>
   <path id="path3432" d="m245.31 464.71c1.2031-0.3144 3.1719-0.3144 4.375 0 1.2031 0.31441 0.21875 0.57166-2.1875 0.57166s-3.3906-0.25725-2.1875-0.57166zm38.774-0.005c1.2162-0.31693 2.9037-0.29609 3.75 0.0464 0.84629 0.34241-0.14879 0.60172-2.2113 0.57624-2.0625-0.0255-2.7549-0.30562-1.5387-0.62255zm90.679 0.0125c0.90233-0.36109 1.9805-0.31669 2.3958 0.0986 0.41537 0.41536-0.32292 0.7108-1.6406 0.65653-1.4562-0.06-1.7524-0.35618-0.75521-0.7552zm46.25 0c0.90233-0.36109 1.9805-0.31669 2.3958 0.0986 0.41537 0.41536-0.32292 0.7108-1.6406 0.65653-1.4562-0.06-1.7524-0.35618-0.75521-0.7552zm7.4219 0.026c0.85938-0.34677 2.2656-0.34677 3.125 0 0.85938 0.34676 0.15625 0.63049-1.5625 0.63049s-2.4219-0.28373-1.5625-0.63049zm35.078-0.026c0.90233-0.36109 1.9805-0.31669 2.3958 0.0986 0.41537 0.41536-0.32292 0.7108-1.6406 0.65653-1.4562-0.06-1.7524-0.35618-0.75521-0.7552zm28.672 0.026c0.85938-0.34677 2.2656-0.34677 3.125 0 0.85938 0.34676 0.15625 0.63049-1.5625 0.63049s-2.4219-0.28373-1.5625-0.63049z"/>
   <path id="path3430" d="m245.31 464.71c1.2031-0.3144 3.1719-0.3144 4.375 0 1.2031 0.31441 0.21875 0.57166-2.1875 0.57166s-3.3906-0.25725-2.1875-0.57166zm38.774-0.005c1.2162-0.31693 2.9037-0.29609 3.75 0.0464 0.84629 0.34241-0.14879 0.60172-2.2113 0.57624-2.0625-0.0255-2.7549-0.30562-1.5387-0.62255zm90.679 0.0125c0.90233-0.36109 1.9805-0.31669 2.3958 0.0986 0.41537 0.41536-0.32292 0.7108-1.6406 0.65653-1.4562-0.06-1.7524-0.35618-0.75521-0.7552zm46.25 0c0.90233-0.36109 1.9805-0.31669 2.3958 0.0986 0.41537 0.41536-0.32292 0.7108-1.6406 0.65653-1.4562-0.06-1.7524-0.35618-0.75521-0.7552zm7.4219 0.026c0.85938-0.34677 2.2656-0.34677 3.125 0 0.85938 0.34676 0.15625 0.63049-1.5625 0.63049s-2.4219-0.28373-1.5625-0.63049zm35.078-0.026c0.90233-0.36109 1.9805-0.31669 2.3958 0.0986 0.41537 0.41536-0.32292 0.7108-1.6406 0.65653-1.4562-0.06-1.7524-0.35618-0.75521-0.7552zm28.672 0.026c0.85938-0.34677 2.2656-0.34677 3.125 0 0.85938 0.34676 0.15625 0.63049-1.5625 0.63049s-2.4219-0.28373-1.5625-0.63049z"/>
  </g>
  <path id="path3428" d="m247.19 464.75c0.85938-0.34676 2.2656-0.34676 3.125 0 0.85938 0.34676 0.15625 0.63049-1.5625 0.63049s-2.4219-0.28373-1.5625-0.63049zm181.25 0c0.85938-0.34676 2.2656-0.34676 3.125 0 0.85938 0.34676 0.15625 0.63049-1.5625 0.63049s-2.4219-0.28373-1.5625-0.63049z" fill="#f4f4f1"/>
 </g>
</svg>
