<?xml version="1.0" encoding="UTF-8" standalone="no"?>
<!-- Created with Inkscape (http://www.inkscape.org/) -->
<svg id="svg2" xmlns:rdf="http://www.w3.org/1999/02/22-rdf-syntax-ns#" xmlns="http://www.w3.org/2000/svg" height="74.495mm" width="141.11mm" version="1.1" xmlns:cc="http://creativecommons.org/ns#" xmlns:dc="http://purl.org/dc/elements/1.1/" viewBox="0 0 500.00001 263.9587">
 <metadata id="metadata7">
  <rdf:RDF>
   <cc:Work rdf:about="">
    <dc:format>image/svg+xml</dc:format>
    <dc:type rdf:resource="http://purl.org/dc/dcmitype/StillImage"/>
    <dc:title/>
   </cc:Work>
  </rdf:RDF>
 </metadata>
 <g id="layer1" transform="translate(-110 -293.06)">
  <path id="path3382" fill="#f4f4f1" d="m187.73 556.19c-9.219-2.3099-19.892-9.6474-25.161-17.297-7.5736-10.996-9.8424-28.114-5.5627-41.97 6.9488-22.498 31.865-34.715 58.739-28.803l6.25 1.375v12.47c0 11.492-0.13724 12.412-1.75 11.729-10.244-4.3418-17.223-5.2034-24.653-3.0436-14.804 4.3038-20.888 21.865-12.015 34.685 1.3755 1.9875 4.8447 4.8961 7.7094 6.4634 4.3939 2.4041 6.3032 2.8366 12.208 2.766 4.5795-0.0548 8.9018-0.82003 12.5-2.2129 3.025-1.171 5.6125-2.1294 5.75-2.1296 0.1375-0.00027 0.25 5.4106 0.25 12.024v12.025l-2.75 1.1259c-3.5341 1.447-26.59 2.027-31.516 0.79283zm121.27 0.41c-7.5813-1.3266-7-0.33864-7-11.897 0-5.7645 0.19708-10.481 0.43795-10.481s3.5034 0.71381 7.25 1.5862c9.5292 2.219 22.19 1.6409 25.989-1.1866 6.3718-4.7414 3.0336-9.6665-9.3466-13.789-10.518-3.5029-16.678-7.5108-20.285-13.199-5.5311-8.7217-4.9623-21.467 1.3226-29.636 7.9762-10.367 23.371-13.714 44.382-9.6489l5.25 1.0158v9.9965c0 9.0635-0.16333 9.9451-1.75 9.446-8.5567-2.6917-18.843-3.199-23.702-1.1689-7.3126 3.0554-6.4785 9.0333 1.6601 11.898 2.3603 0.83089 7.2165 2.5422 10.792 3.8029 4.8199 1.6997 7.8012 3.5964 11.534 7.3379 5.5467 5.5597 7.4661 10.247 7.4661 18.234 0 11.165-5.2568 19.343-15.76 24.517-6.5685 3.2359-6.9497 3.298-21.214 3.4526-7.9891 0.0866-15.651-0.0394-17.026-0.27995zm106.5-0.72525c-12.734-4.224-22.671-12.497-27.519-22.912-12.273-26.364 0.51184-56.583 27.183-64.25 7.7076-2.2158 20.934-2.477 29.586-0.58428l6.25 1.3672v12.363c0 6.7998-0.1125 12.363-0.25 12.363-0.1375-0.00028-2.725-0.97019-5.75-2.1554-8.1356-3.1874-18.055-3.1075-24.525 0.19775-16.148 8.25-16.177 31.649-0.0494 39.892 6.3944 3.268 16.432 3.3483 24.574 0.19643 3.025-1.171 5.6125-2.1294 5.75-2.1296 0.1375-0.00027 0.25 5.4106 0.25 12.024v12.025l-2.75 1.13c-4.2098 1.7299-27.928 2.0723-32.75 0.47278zm88.298-0.53194c-19.309-6.3472-30.818-22.442-30.786-43.052 0.0216-13.761 4.3957-24.381 13.644-33.128 17.852-16.884 47.216-16.65 65.217 0.51964 9.8761 9.4202 13.603 19.565 12.962 35.281-0.342 8.3849-0.84417 10.709-3.5681 16.517-4.3979 9.3762-11.789 16.902-21.14 21.524-7.2174 3.5675-7.9892 3.728-19.075 3.9654-9.0988 0.19483-12.764-0.15078-17.255-1.627zm24.888-23.21c16.84-8.1523 16.079-33.87-1.1976-40.468-6.6234-2.5295-15.309-1.6384-20.743 2.1281-5.33 3.69-9.75 11.92-9.75 18.14 0 16.382 17.079 27.27 31.685 20.199zm-277.69-19.91v-44h11.5 11.5v44 44h-11.5-11.5v-44zm-16.24-82.57c-5.88-3.19-5.76-1.71-5.76-68.16 0-55.673 0.14441-61.037 1.7041-63.3 2.7796-4.0329 4.5241-4.9072 9.8588-4.9407 4.3652-0.0274 5.4677 0.39062 8 3.0334l2.9371 3.0652 0.27237 61.441c0.29949 67.558 0.45353 65.709-5.7396 68.911-3.6657 1.8956-7.7194 1.8782-11.27-0.0485zm238.54-0.39052c-2.1158-1.2901-3.5694-3.2316-4.302-5.7463-0.76987-2.6425-1.0146-22.151-0.80447-64.13l0.30198-60.332 3.2658-2.9175c5.6839-5.0778 14.819-3.6828 18.117 2.7667 0.78641 1.5378 1.117 20.126 1.117 62.8 0 66.503 0.14611 64.838-5.9673 67.999-3.9631 2.0494-7.8881 1.9025-11.728-0.43898zm-358.52-21.6c-1.4987-0.8133-3.1862-2.3407-3.75-3.3942-0.58-1.09-1.03-8.95-1.03-18.06v-16.143l2.9231-2.9231c2.4746-2.4746 3.7139-2.9231 8.0769-2.9231s5.6024 0.44853 8.0769 2.9231l2.9231 2.9231v16.177 16.177l-3.4 3.4c-2.715 2.715-4.1756 3.3919-7.25 3.36-2.1175-0.022-5.0762-0.70546-6.5749-1.5188zm60.22 0.28c-1.375-0.68705-3.297-2.8179-4.2712-4.7353-1.5971-3.1436-1.7445-6.4175-1.5-33.319l0.27115-29.833 3.2658-2.9167c5.6844-5.0768 14.819-3.6814 18.117 2.7676 0.74976 1.4661 1.117 12.103 1.117 32.35v30.166l-3.4 3.4c-2.6988 2.6988-4.1941 3.397-7.25 3.3853-2.1175-0.008-4.975-0.57687-6.35-1.2639zm117.4-2.1214-3.4-3.4v-30.15c0-32.027 0.3377-34.555 4.9446-37.021 2.9368-1.5717 10.327-1.2284 12.939 0.60105 4.6868 3.2828 5.1169 6.2976 5.1169 35.869 0 30.468-0.43363 33.122-5.8716 35.934-5.1697 2.6734-9.8461 2.0488-13.728-1.8336zm61.71 2.0045c-4.4462-2.4643-5.0368-5.0168-5.0746-21.931l-0.0354-15.827 2.9231-2.9231c2.4746-2.4746 3.7139-2.9231 8.0769-2.9231s5.6024 0.44853 8.0769 2.9231l2.9231 2.9231v15.53c0 9.9106-0.43228 16.479-1.1947 18.152-2.2427 4.9221-10.364 7.0315-15.695 4.0766zm59.201-0.55621c-2.1426-1.3064-3.535-3.1915-4.2444-5.7463-0.6194-2.2305-1.0581-14.872-1.0614-30.584-0.006-28.737 0.44276-31.817 5.1113-35.087 2.612-1.8295 10.002-2.1728 12.939-0.60105 4.6069 2.4656 4.9446 4.9939 4.9446 37.021v30.15l-3.4 3.4c-4.0378 4.0378-9.186 4.5596-14.289 1.4483zm118.09-1.44l-3.4-3.4v-30.166c0-20.247 0.36728-30.884 1.117-32.35 1.9897-3.8907 5.1128-5.6385 10.117-5.662 3.8352-0.018 5.3544 0.53165 8 2.8944l3.2658 2.9167 0.29351 29.771c0.2089 21.189-0.0463 30.592-0.88536 32.617-1.8308 4.4201-5.5336 6.7783-10.643 6.7783-3.7447 0-5.0138-0.54861-7.8651-3.4zm60 0-3.4-3.4v-15.994-15.994l2.9012-3.1058c2.5227-2.7006 3.5764-3.1058 8.0769-3.1058 4.3872 0 5.621 0.44533 8.0988 2.9231l2.9231 2.9231v16.143c0 9.1593-0.44543 16.975-1.0296 18.067-1.4465 2.7028-6.2165 4.9446-10.521 4.9446-2.8173 0-4.4251-0.77546-7.0497-3.4z"/>
 </g>
</svg>
