<?xml version="1.0" encoding="UTF-8" standalone="no"?>
<!-- Created with Inkscape (http://www.inkscape.org/) -->
<svg id="svg2" xmlns:rdf="http://www.w3.org/1999/02/22-rdf-syntax-ns#" xmlns="http://www.w3.org/2000/svg" height="13.359mm" width="62.281mm" version="1.1" xmlns:cc="http://creativecommons.org/ns#" xmlns:dc="http://purl.org/dc/elements/1.1/" viewBox="0 0 220.68053 47.336513">
 <metadata id="metadata7">
  <rdf:RDF>
   <cc:Work rdf:about="">
    <dc:format>image/svg+xml</dc:format>
    <dc:type rdf:resource="http://purl.org/dc/dcmitype/StillImage"/>
    <dc:title/>
   </cc:Work>
  </rdf:RDF>
 </metadata>
 <g id="layer1" transform="translate(-204.74 -405.75)">
  <path id="path3382" fill="#f4f4f1" d="m239.12 452.35c-4.5226-1.1018-6.875-4.2578-6.875-9.2238 0-6.3819 3.3255-8.6271 12.778-8.6271 6.7106 0 7.2219-0.20433 7.2219-2.8861 0-7.1676-9.2516-10.441-14.945-5.2882-3.2946 2.9816-4.9271 1.4866-1.9586-1.7936 4.6129-5.0972 16.404-3.8952 18.628 1.8989 1.3039 3.398 0.89333 25.569-0.47352 25.569-0.6875 0-1.25-0.5338-1.25-1.1862 0-0.65242-1.9507-0.37117-4.3348 0.625-4.5143 1.8862-4.709 1.9064-8.7902 0.91217zm10.839-4.9197c1.3467-1.2187 2.2859-3.7867 2.2859-6.25v-4.1813h-6.3322c-3.4827 0-7.4202 0.58229-8.75 1.294-2.7403 1.4666-3.2947 7.3292-0.91782 9.706 2.2143 2.2143 11.043 1.8482 13.714-0.56874zm13.61 3.6803c-2.3653-1.2301-4.5622-3.0617-4.8821-4.0703-0.45564-1.4368 0.16883-1.3421 2.8849 0.4375 4.0098 2.6273 11.133 2.9828 13.892 0.69314 3.7656-3.1252 1.5438-6.6128-6.7062-10.527-5.3009-2.5148-8.0863-4.6232-8.5504-6.4723-2.1772-8.6746 8.26-13.416 16.41-7.4544 3.6841 2.6946 1.6543 3.6024-2.9353 1.3128-5.3487-2.6683-10.813-0.98914-10.813 3.3229 0 2.3917 1.3287 3.6716 6.3802 6.1458 8.4168 4.1225 10.495 5.9817 10.495 9.3896 0 7.2246-8.7008 11.109-16.176 7.222zm51.638 0.3867c-4.011-1.7955-6.2326-4.1449-5.0436-5.3339 0.36812-0.36814 1.9559 0.23179 3.5283 1.3332 3.5604 2.4938 11.493 2.6092 13.496 0.1963 3.0986-3.7336 1.0356-7.37-5.5679-9.8144-11.14-4.1235-13.766-9.4772-7.1879-14.652 4.1343-3.252 10.644-2.7018 14.578 1.2322 3.0199 3.0199 1.3502 3.2792-3.9832 0.61851-4.6091-2.2993-9.8787-1.3196-10.943 2.0346-1.1019 3.4716 0.20713 4.8239 8.0084 8.2732 7.8178 3.4566 8.8556 4.5351 8.8833 9.2325 0.0379 6.4217-8.4846 10.14-15.768 6.8795zm37.619 0.56236c-3.8746-1.5705-5.9983-4.7825-5.9983-9.072 0-5.8439 4.0674-8.4886 13.055-8.4886 7.9641 0 8.6573-0.78848 5.9388-6.7548-0.81161-1.7813-2.8659-3.4394-4.7828-3.8604-3.8932-0.85509-9.5178 0.96076-10.367 3.347-0.32173 0.9038-0.95647 1.3019-1.4105 0.88469-3.2612-2.9967 6.2486-8.1631 12.252-6.6563 6.3675 1.5981 8.2311 5.8622 8.2311 18.834 0 6.971-0.50565 11.706-1.25 11.706-0.6875 0-1.25-0.5338-1.25-1.1862 0-0.65242-1.9507-0.37117-4.3348 0.625-4.8398 2.0222-6.3925 2.118-10.084 0.62182zm11.918-5.0606c1.3889-1.3889 2.5-4.1667 2.5-6.25 0-3.7356-0.0278-3.75-7.25-3.75-7.9968 0-10.25 1.3739-10.25 6.25 0 1.7875 0.675 3.925 1.5 4.75 2.4395 2.4395 10.67 1.8298 13.5-1zm45.067 4.8704c-4.188-1.6726-6.4264-3.6826-5.5965-5.0254 0.3813-0.61697 1.9065-0.27199 3.3894 0.76663 2.7516 1.9273 9.1065 2.4943 12.663 1.1297 1.1834-0.45412 1.9772-2.2362 1.9772-4.4388 0-3.0872-0.75514-3.9808-4.6875-5.5473-8.2776-3.2973-10.611-4.7926-11.903-7.6273-1.7054-3.743 1.5309-8.6417 6.4182-9.7152 3.9806-0.87429 12.672 2.0567 12.672 4.2735 0 1.7029-0.28459 1.6682-4.5446-0.55352-4.8376-2.523-7.4778-2.3603-10.484 0.64595-3.3739 3.3739-1.5684 6.7539 4.7066 8.8108 2.5834 0.84681 5.904 2.3243 7.379 3.2833 5.6891 3.6988 4.4606 11.668-2.1542 13.974-4.7274 1.648-5.7623 1.6505-9.8354 0.0237zm-200.08-13.62c0-12.917-0.15151-13.75-2.5-13.75-1.375 0-2.5-0.5625-2.5-1.25s1.125-1.25 2.5-1.25c1.9564 0 2.5-0.83333 2.5-3.8322 0-2.1077 0.541-4.843 1.2022-6.0786 1.2838-2.3989 8.4033-5.9004 9.588-4.7157 1.1978 1.1978-0.81148 3.3764-3.114 3.3764-3.3157 0-5.1762 2.561-5.1762 7.125 0 3.75 0.34091 4.125 3.75 4.125 2.0625 0 3.75 0.5625 3.75 1.25s-1.6875 1.25-3.75 1.25h-3.75v13.75c0 8.3333-0.49242 13.75-1.25 13.75s-1.25-5.4167-1.25-13.75zm15.044 11.332c-1.7056-3.1869-1.7464-43.832-0.044-43.832 0.78098 0 1.25 7.4659 1.25 19.898 0 20.862 0.40859 23.852 3.2587 23.852 0.95769 0 1.7413 0.5625 1.7413 1.25 0 2.2351-4.8758 1.3176-6.206-1.1678zm58.706-20.707c0-14.583 0.46171-23.125 1.25-23.125 0.7226 0 1.25 3.969 1.25 9.4071v9.4071l3.9231-2.0287c4.4628-2.3078 10.266-1.6572 13.807 1.5481 1.9141 1.7322 2.2695 4.0791 2.2695 14.985 0 7.7875-0.49723 12.931-1.25 12.931-0.74897 0-1.25-4.949-1.25-12.347 0-13.956-0.91117-15.653-8.4029-15.653-7.1862 0-9.0971 3.5476-9.0971 16.888 0 6.5744-0.51041 11.112-1.25 11.112-0.78829 0-1.25-8.5417-1.25-23.125zm55.25 21.625c-0.96259-0.96259-1.5-5.8889-1.5-13.75 0-11.417-0.17006-12.25-2.5-12.25-1.375 0-2.5-0.5625-2.5-1.25s1.125-1.25 2.5-1.25c2.0238 0 2.5-0.83333 2.5-4.375 0-2.4062 0.5625-4.375 1.25-4.375s1.25 1.9688 1.25 4.375c0 3.5417 0.47619 4.375 2.5 4.375 1.375 0 2.5 0.5625 2.5 1.25s-1.125 1.25-2.5 1.25c-2.3263 0-2.5 0.83333-2.5 11.992 0 10.941 0.21916 12.049 2.5 12.646 1.375 0.35957 2.5 1.1507 2.5 1.758 0 1.6249-4.2603 1.3439-6-0.39579zm36-13.396c0-13.614 0.85777-17.523 3.0624-13.956 0.40142 0.64951 2.3805 0.31522 4.5545-0.76929 2.7083-1.3511 4.2362-1.5263 5.1697-0.59283 0.93347 0.93346 0.37525 1.5635-1.8887 2.1317-5.7751 1.4494-7.0133 4.1483-7.4077 16.146-0.24663 7.5034-0.87225 11.277-1.9276 11.626-1.1924 0.39494-1.5625-3.0606-1.5625-14.587zm21.5 13.396c-0.96259-0.96259-1.5-5.8889-1.5-13.75 0-11.417-0.17006-12.25-2.5-12.25-1.375 0-2.5-0.5625-2.5-1.25s1.125-1.25 2.5-1.25c2.0238 0 2.5-0.83333 2.5-4.375 0-2.4062 0.5625-4.375 1.25-4.375s1.25 1.9688 1.25 4.375c0 3.5417 0.47619 4.375 2.5 4.375 1.375 0 2.5 0.5625 2.5 1.25s-1.125 1.25-2.5 1.25c-2.3263 0-2.5 0.83333-2.5 11.992 0 10.941 0.21916 12.049 2.5 12.646 1.375 0.35957 2.5 1.1507 2.5 1.758 0 1.6249-4.2603 1.3439-6-0.39579z"/>
 </g>
</svg>
