<?xml version="1.0" encoding="UTF-8" standalone="no"?>
<!-- Created with Inkscape (http://www.inkscape.org/) -->
<svg id="svg2" xmlns:rdf="http://www.w3.org/1999/02/22-rdf-syntax-ns#" xmlns="http://www.w3.org/2000/svg" height="84.628mm" width="141mm" version="1.1" xmlns:cc="http://creativecommons.org/ns#" xmlns:dc="http://purl.org/dc/elements/1.1/" viewBox="0 0 499.60408 299.86436">
 <metadata id="metadata7">
  <rdf:RDF>
   <cc:Work rdf:about="">
    <dc:format>image/svg+xml</dc:format>
    <dc:type rdf:resource="http://purl.org/dc/dcmitype/StillImage"/>
    <dc:title/>
   </cc:Work>
  </rdf:RDF>
 </metadata>
 <g id="layer1" transform="translate(-148.8 -172.36)">
  <path id="path3396" d="m151.07 471.24c0-0.61923 1.4008-4.1349 3.1128-7.8125 3.0714-6.5977 3.113-7.1306 3.125-40.088l0.0122-33.402-4.0606-1.0522c-2.2333-0.57871-4.227-1.9162-4.4303-2.9721-0.29993-1.5574 1.6647-2.0763 10.406-2.7482 5.9268-0.45556 11.249-0.53599 11.827-0.17871 0.57809 0.35728 0.95691 16.536 0.84183 35.952-0.24162 40.767-0.22763 40.713-12.654 48.961-7.1044 4.7157-8.1802 5.155-8.1802 3.3405zm199.36-1.4003c-0.4338-0.7019 1.2205-2.1157 3.6762-3.1418l4.465-1.8656v-37.427-37.427l-4.375-0.82077c-4.9231-0.92357-5.8977-3.932-1.5625-4.8229 1.5469-0.3179 6.8906-0.92518 11.875-1.3495l9.0625-0.77151v3.9552 3.9552l4.2739-3.7525c8.5115-7.4732 23.485-6.357 31.967 2.3831 12.189 12.56 9.3383 38.652-5.2808 48.326-4.4188 2.9242-6.4401 3.4095-14.201 3.4095-7.4589 0-9.7264-0.5008-12.904-2.8499l-3.8547-2.8499v14.987 14.987l5 1.498c2.75 0.82391 5 2.2528 5 3.1752 0 1.3164-3.4789 1.6771-16.176 1.6771-9.6572 0-16.494-0.51431-16.965-1.2762zm41.865-36.21c6.7156-3.5941 9.6764-30.916 4.3356-40.007-3.2548-5.5405-7.6911-7.2303-13.1-4.9899-11.863 4.9139-13.833 38.255-2.6199 44.347 3.8918 2.1147 8.1889 2.36 11.384 0.64985zm-196.85 5.6493c-2.75-1.0318-5.0765-1.8844-5.1701-1.8947-0.0935-0.01-1.0779-1.932-2.1875-4.2702-1.5873-3.345-2.0174-8.3878-2.0174-23.653v-19.402l-4.375-1.4439c-7.9793-2.6334-5.4142-4.6934 6.5625-5.2703 6.0156-0.28975 11.359-0.31428 11.875-0.0545 0.51562 0.25976 0.9375 10.246 0.9375 22.192s0.5426 23.147 1.2058 24.891c1.6972 4.464 6.8671 5.5026 12.439 2.4989 6.7269-3.6261 7.5657-6.4701 7.5864-25.723l0.0184-17.091-4.375-1.4439c-4.1718-1.3768-5.4709-2.9494-3.4375-4.1611 0.51562-0.30723 5.9458-0.7623 12.067-1.0113l11.129-0.45268-0.18674 24.538-0.18674 24.538 3.724 1.5425c2.1814 0.90355 5.5448 1.2009 8.1198 0.71784l4.3958-0.82467v-21.721-21.721l-4.375-1.4439c-8.1244-2.6813-5.5549-4.3054 8.9381-5.6497l8.9381-0.82905 0.87156 3.9682c0.85291 3.8833 0.91065 3.9123 2.7003 1.3572 2.8296-4.0398 8.4369-6.3466 15.427-6.3466 6.8544 0 11.707 1.9207 15.533 6.1479l2.4017 2.6538 3.2204-2.9981c1.7712-1.649 4.449-3.6293 5.9507-4.4008 3.8227-1.964 15.897-1.7488 20.977 0.37378 7.2001 3.0084 8.3467 6.9904 8.5841 29.814l0.20875 20.063 4.2995 1.447c2.3648 0.79589 4.521 2.1114 4.7917 2.9234 0.3623 1.0869-3.9875 1.4764-16.487 1.4764-17.84 0-20.76-1.0478-12.519-4.4912l4.4603-1.8636-0.39779-19.82c-0.3492-17.399-0.68873-20.141-2.779-22.448-3.4248-3.7789-7.6049-3.2463-12.95 1.6499l-4.6691 4.2773-0.43106 18.287-0.43106 18.287 3.8686 1.4602c2.1277 0.80313 3.8686 2.1806 3.8686 3.0612 0 1.2197-3.8947 1.601-16.354 1.601-12.019 0-16.224-0.39136-15.862-1.4764 0.27066-0.812 2.3408-2.0988 4.6002-2.8596l4.1081-1.3832-0.17771-19.829c-0.0978-10.906-0.73094-20.862-1.4071-22.126-1.7363-3.2442-7.1973-4.3325-11.008-2.1936-6.528 3.6641-8.2341 8.9662-8.7096 27.067l-0.43545 16.575 4.498 1.8794c2.4739 1.0336 4.4979 2.4343 4.4979 3.1126 0 0.7726-10.006 1.2332-26.788 1.2332-25.922 0-26.801-0.0818-27.188-2.528-0.38573-2.4412-0.56309-2.4164-5.1655 0.72342-5.9712 4.0736-15.653 5.1247-22.734 2.4682zm230.59 0.66014c-4.5182-1.3728-8.7106-4.1867-8.7106-5.8467 0-0.78192 0.87604-3.5183 1.9468-6.0809l1.9468-4.6592 3.6275 5.72c5.2399 8.2624 12.958 9.8465 18.416 3.7798 5.2874-5.8768 3.961-9.63-7.1875-20.338-9.2102-8.8464-9.9996-9.9966-9.9953-14.564 0.01-11.035 9.5482-17.875 22.99-16.488 6.5239 0.67333 14.534 3.7845 14.477 5.6232-0.0152 0.49798-1.1027 2.3044-2.4164 4.0143l-2.3886 3.1089-2.8961-2.6402c-4.1954-3.8247-7.8344-5.4526-12.189-5.4526-4.2195 0-8.8322 3.7415-8.8322 7.1641 0 1.1902 4.1621 6.1121 9.2492 10.938 10.748 10.195 12.001 12.267 12.001 19.845 0 6.2598-3.777 11.96-10.087 15.223-3.7245 1.926-14.593 2.2822-19.953 0.6538zm82.539-1.0131c-8.6781-4.3352-10.992-15.929-6.1329-30.73 5.3852-16.405 15.936-25.773 29.069-25.81 6.5392-0.0184 7.6842 0.37892 10.846 3.7638 3.4635 3.7077 3.5433 3.727 3.939 0.95433 0.31315-2.194 1.4574-3.0002 5.0914-3.5875 5.9023-0.95389 5.8908-1.5935 0.42571 23.587-5.6315 25.948-5.7119 26.512-3.7809 26.512 0.88586 0 3.332-2.0883 5.4359-4.6407 2.9248-3.5483 4.1702-4.2958 5.2905-3.1755 2.2072 2.2072-3.9133 10.678-9.6986 13.424-4.1922 1.9893-5.1049 2.0433-7.924 0.46888-2.2128-1.2358-3.3074-3.0297-3.583-5.8722l-0.39687-4.0927-4.981 4.5c-8.1268 7.3421-15.408 8.7917-23.6 4.699zm19.984-7.3201c2.7453-2.4802 6.8251-8.2333 9.0661-12.785 3.5518-7.2133 4.0746-9.5354 4.0746-18.098 0-8.8147-0.30296-10.069-2.951-12.215-3.8903-3.1537-7.6225-3.0202-12.783 0.45721-10.573 7.1251-18.942 35.811-12.946 44.372 3.1214 4.4563 9.4727 3.7486 15.538-1.7314zm-56.666 5.9736c-2.9824-3.2955-2.59-9.985 1.6664-28.416 2.0544-8.8954 3.7418-16.876 3.75-17.736 0.009-0.85937-1.2508-1.5711-2.7977-1.5816-7.122-0.0485-6.8456-4.5112 0.32148-5.1917 4.129-0.39205 4.4318-0.74443 5.6661-6.593 1.0718-5.079 1.9622-6.4595 5.002-7.7561 7.4104-3.1608 8.0598-2.5784 6.1298 5.4974-0.94475 3.9531-1.7378 7.6094-1.7622 8.125-0.0245 0.51562 3.069 0.9375 6.8744 0.9375 6.5316 0 6.8441 0.13996 5.581 2.5-1.0584 1.9776-2.6173 2.5-7.4598 2.5-4.7584 0-6.2612 0.48716-6.7478 2.1875-1.612 5.6329-8.2925 36.518-8.2925 38.337 0 3.5164 3.3207 3.5447 8.5669 0.0729 6.3845-4.225 9.2251-2.9691 4.482 1.9816-6.7834 7.0803-16.964 9.572-20.98 5.1346zm92.95 1.3484c0.01-0.51562 0.88218-4.5938 1.9378-9.0625 3.0527-12.923 8.0303-36.728 8.0373-38.438 0.004-0.85937-1.2592-1.5711-2.8061-1.5816-3.3348-0.0227-6.8405-1.9945-5.6546-3.1805 1.0469-1.0469 18.789-4.1644 19.937-3.5033 0.46498 0.26765 0.32435 2.3035-0.3125 4.524-1.8402 6.4162-1.3968 6.8211 2.6918 2.4586 2.111-2.2524 5.1251-4.9385 6.6981-5.9691 3.5962-2.3563 11.235-2.7116 13.733-0.63866 1.6813 1.3953 1.6143 2.123-0.59336 6.4504-2.7919 5.4726-3.1066 5.6372-5.7412 3.0027-4.6505-4.6505-12.736-0.16385-17.732 9.8391-2.353 4.7115-5.9926 17.628-9.6432 34.223-0.51521 2.3421-1.451 2.8125-5.5949 2.8125-2.7369 0-4.9679-0.42187-4.9577-0.9375zm52.339-1.7047c-3.2067-3.2067-2.8417-7.3337 2.6989-30.517 2.0313-8.4999 3.6933-15.912 3.6933-16.472 0-0.55969-1.8141-1.0122-4.0312-1.0055-2.8462 0.009-4.1592-0.63097-4.4666-2.1754-0.35706-1.7938 0.4722-2.1875 4.608-2.1875 4.8922 0 5.0832-0.15934 6.3692-5.3125 0.72915-2.9219 1.768-6.111 2.3085-7.0869 1.0015-1.8084 9.5555-5.3406 10.543-4.3534 0.29856 0.29857-0.21618 3.4689-1.1438 7.0452-2.5103 9.6774-2.4958 9.7076 4.655 9.7076 5.3644 0 6.2777 0.33709 5.9267 2.1875-0.31606 1.666-2.0361 2.3365-7.215 2.8125l-6.8 0.625-4.1056 17.5c-4.6031 19.621-5.0073 24.124-2.2601 25.178 1.0383 0.39843 3.8132-0.74423 6.1666-2.5392 4.7309-3.6084 6.9456-4.1207 6.9456-1.6065 0 2.115-4.4825 6.2232-9.6254 8.8217-5.5364 2.7973-11.09 2.5556-14.267-0.62096zm-459.06-74.25c-3.3486-3.3486-3.7319-6.9367-1.117-10.455 3.5187-4.7347 9.2482-5.0453 12.676-0.68714 3.297 4.1914 3.3048 5.5984 0.0538 9.7313-2.9499 3.7501-8.5889 4.4354-11.613 1.4112zm25.939-33.093c-4.2372-1.712-7.9852-7.4352-7.9852-12.193 0-5.476 6.7711-12.831 11.812-12.831 13.302 0 18.849 17.072 7.7466 23.842-4.2103 2.5673-7.3523 2.8884-11.573 1.1828zm34.989-35.769c-14.756-5.0459-15.282-24.176-0.86879-31.599 6.7505-3.4767 17.352 0.25139 21.05 7.4024 2.1596 4.1762 2.4128 12.352 0.50923 16.445-3.1907 6.8601-12.786 10.455-20.69 7.752zm49.131-33.526c-2.6236-0.95814-5.9356-2.7799-7.36-4.0484-6.3757-5.6779-7.9683-18.412-3.1822-25.444 4.8068-7.0626 8.9982-9.3623 17.064-9.3623 6.0009 0 7.9759 0.59705 11.916 3.6023 5.9703 4.5538 8.6459 10.771 7.9138 18.39-1.2597 13.11-14.111 21.333-26.352 16.863zm57.388-28.563c-6.0497-3.4594-9.333-7.7744-10.765-14.148-3.6496-16.243 11.443-31.099 27.267-26.838 6.0723 1.6351 12.068 6.362 14.82 11.685 2.6256 5.0774 2.5024 14.411-0.26732 20.248-5.081 10.707-20.368 15.164-31.054 9.0537zm71.184-13.691c-2.7214-1.5799-6.6238-5.2568-8.6719-8.1709-3.1742-4.5164-3.7224-6.452-3.7137-13.114 0.0113-8.3782 1.361-12.01 6.5489-17.615 5.0987-5.509 9.2178-7.0759 18.601-7.0759 7.5715 0 9.1642 0.44003 13.72 3.7906 11.014 8.0997 13.803 24.675 5.8124 34.547-6.4172 7.9286-9.6786 9.6686-18.952 10.111-6.9563 0.33175-9.2468-0.0925-13.346-2.472z" fill="#f4f4f1"/>
  <path id="path3394" d="m543.34 440.26c0.90234-0.36108 1.9805-0.31668 2.3958 0.0986 0.41536 0.41536-0.32292 0.7108-1.6406 0.65652-1.4562-0.06-1.7524-0.35617-0.75522-0.7552zm-262.27-2.8223c0-0.64692 0.55606-1.5199 1.2357-1.9399 0.70857-0.43793 0.91812 0.0639 0.49126 1.1762-0.83099 2.1655-1.727 2.5617-1.727 0.7637zm223.01-1.6363-2.3812-2.8125 2.8125 2.3812c1.5469 1.3097 2.8125 2.5753 2.8125 2.8125 0 1.0003-1.006 0.26181-3.2438-2.3812zm48.244 1.0906c0-0.25956 0.98437-1.2439 2.1875-2.1875 1.9826-1.5548 2.0268-1.5106 0.47195 0.47195-1.633 2.0822-2.6594 2.7444-2.6594 1.7156zm-145-2.5c0-0.25956 0.98437-1.2439 2.1875-2.1875 1.9826-1.5548 2.0268-1.5106 0.47195 0.47195-1.633 2.0822-2.6594 2.7444-2.6594 1.7156zm-153.24-21.4c0.002-11 0.19281-15.333 0.42495-9.6282 0.23215 5.7045 0.23085 14.705-0.003 20-0.23373 5.2955-0.42367 0.62815-0.42208-10.372zm36.206 5.625c0-7.2188 0.2066-10.172 0.4591-6.5625 0.2525 3.6094 0.2525 9.5156 0 13.125s-0.4591 0.65625-0.4591-6.5625zm-67.526-16.25c0-5.8438 0.21532-8.2344 0.47849-5.3125s0.26317 7.7031 0 10.625-0.47849 0.53125-0.47849-5.3125zm119.66 0.52084c0.06-1.4562 0.35617-1.7524 0.7552-0.75521 0.36108 0.90233 0.31668 1.9805-0.0986 2.3958-0.41537 0.41536-0.7108-0.32292-0.65652-1.6406zm95.408-3.3333-2.3812-2.8125 2.8125 2.3812c2.643 2.2378 3.3816 3.2438 2.3812 3.2438-0.2372 0-1.5028-1.2656-2.8125-2.8125zm-147.81-0.9375c0-1.7188 0.28373-2.4219 0.63049-1.5625 0.34676 0.85938 0.34676 2.2656 0 3.125-0.34676 0.85938-0.63049 0.15625-0.63049-1.5625zm184.18-8.75-3.75-0.95421 3.3637-0.1479c1.85-0.0814 3.7114 0.41461 4.1363 1.1021 0.4249 0.6875 0.59872 1.1834 0.38627 1.1021-0.21245-0.0814-2.0738-0.5773-4.1363-1.1021zm160.51-0.38811c0.55931-0.55722 3.7673-0.82948 7.1288-0.60504l6.1119 0.40808-7.1288 0.60503c-3.9208 0.33278-6.6712 0.14914-6.1119-0.40807zm-226.29-1.7994c-1.5548-1.9826-1.5106-2.0268 0.47195-0.47195 1.2031 0.94356 2.1875 1.9279 2.1875 2.1875 0 1.0288-1.0265 0.36664-2.6594-1.7156zm82.972 1.2922c1.8906-0.28642 4.9844-0.28642 6.875 0 1.8906 0.2864 0.34375 0.52074-3.4375 0.52074s-5.3281-0.23434-3.4375-0.52074zm125.7 0.0414c0.90234-0.36109 1.9805-0.31669 2.3958 0.0986 0.41536 0.41536-0.32292 0.7108-1.6406 0.65652-1.4562-0.06-1.7524-0.35617-0.75522-0.7552zm-379.67-2.4966c-0.0648-1.7906-1.0635-2.9114-2.9112-3.2673l-2.8125-0.54171 2.8517-0.17023c2.9612-0.17676 4.7315 2.3214 3.6149 5.101-0.35433 0.88205-0.68864 0.37724-0.74292-1.1218zm191.15 1.6286c0-0.25956 0.98437-1.2439 2.1875-2.1875 1.9826-1.5548 2.0268-1.5106 0.47195 0.47195-1.633 2.0822-2.6594 2.7444-2.6594 1.7156zm-91.409-2.9656c-1.5548-1.9826-1.5106-2.0268 0.47195-0.47195 2.0822 1.633 2.7444 2.6594 1.7156 2.6594-0.25956 0-1.2439-0.98437-2.1875-2.1875zm-173.82-2.41c0.90235-0.36108 1.9805-0.31668 2.3958 0.0986 0.41536 0.41536-0.32292 0.7108-1.6406 0.65652-1.4562-0.06-1.7524-0.35617-0.75521-0.7552zm-8.4169-26.125c0.06-1.4562 0.35618-1.7524 0.75521-0.75521 0.36109 0.90233 0.31668 1.9805-0.0987 2.3958-0.41537 0.41536-0.7108-0.32292-0.65653-1.6406zm16.25 0c0.06-1.4562 0.35618-1.7524 0.75521-0.75521 0.36109 0.90233 0.31668 1.9805-0.0987 2.3958-0.41536 0.41536-0.7108-0.32292-0.65652-1.6406zm102.09-95.099c0.85937-0.34677 2.2656-0.34677 3.125 0 0.85937 0.34676 0.15625 0.63048-1.5625 0.63048s-2.4219-0.28372-1.5625-0.63048zm40.411-48.651c0.06-1.4562 0.35617-1.7524 0.7552-0.7552 0.36108 0.90234 0.31668 1.9805-0.0986 2.3958-0.41537 0.41536-0.7108-0.32292-0.65652-1.6406z" fill="#f4f4f1"/>
  <path id="path3392" d="m504.08 435.8-2.3812-2.8125 2.8125 2.3812c1.5469 1.3097 2.8125 2.5753 2.8125 2.8125 0 1.0003-1.006 0.26181-3.2438-2.3812zm-96.756-1.4094c0-0.25956 0.98437-1.2439 2.1875-2.1875 1.9826-1.5548 2.0268-1.5106 0.47195 0.47195-1.633 2.0822-2.6594 2.7444-2.6594 1.7156zm-153.24-21.4c0.002-11 0.19281-15.333 0.42495-9.6282 0.23215 5.7045 0.23085 14.705-0.003 20-0.23373 5.2955-0.42367 0.62815-0.42208-10.372zm-31.441-5c0.0139-2.75 0.26985-3.7278 0.56885-2.1729 0.29899 1.5549 0.28764 3.8049-0.0252 5-0.31287 1.1951-0.5575-0.0771-0.54362-2.8271zm-0.21655-13.854c0.06-1.4562 0.35618-1.7524 0.75521-0.75521 0.36109 0.90233 0.31668 1.9805-0.0987 2.3958-0.41536 0.41536-0.7108-0.32292-0.65652-1.6406zm185.99-6.4583c-1.5548-1.9826-1.5106-2.0268 0.47195-0.47195 1.2031 0.94356 2.1875 1.9279 2.1875 2.1875 0 1.0288-1.0265 0.36664-2.6594-1.7156zm-170.99-1.1584c-0.0543-1.4965-1.0831-2.9781-2.2862-3.2925-2.0501-0.53575-2.0476-0.58076 0.0392-0.71666 2.4244-0.15788 4.0162 2.5714 2.9899 5.1263-0.35432 0.88205-0.68863 0.37936-0.74291-1.1171zm35.92-125.01c0.90234-0.36109 1.9805-0.31668 2.3958 0.0987 0.41536 0.41536-0.32292 0.7108-1.6406 0.65652-1.4562-0.06-1.7524-0.35618-0.75522-0.75521z" fill="#f4f4f1"/>
  <path id="path3390" d="m254.07 414.24c0.002-10.312 0.19536-14.365 0.43023-9.0054 0.23488 5.3595 0.23345 13.797-0.003 18.75-0.23669 4.953-0.42886 0.56786-0.42711-9.7446zm-31.46-5.625c0-2.4062 0.25725-3.3906 0.57166-2.1875s0.31441 3.1719 0 4.375-0.57166 0.21875-0.57166-2.1875zm-0.19132-14.479c0.06-1.4562 0.35618-1.7524 0.75521-0.75521 0.36109 0.90233 0.31668 1.9805-0.0987 2.3958-0.41536 0.41536-0.7108-0.32292-0.65652-1.6406zm185.99-6.4583c-1.5548-1.9826-1.5106-2.0268 0.47195-0.47195 1.2031 0.94356 2.1875 1.9279 2.1875 2.1875 0 1.0288-1.0265 0.36664-2.6594-1.7156zm-171.09-2.5125c0-0.75168-0.98438-1.6239-2.1875-1.9383-1.9721-0.51537-1.9794-0.58593-0.0738-0.71666 2.2552-0.1547 4.2599 2.0231 3.0114 3.2715-0.41259 0.41259-0.75017 0.13516-0.75017-0.61651z" fill="#f4f4f1"/>
  <path id="path3388" d="m254.07 414.24c0.002-10.312 0.19536-14.365 0.43023-9.0054 0.23488 5.3595 0.23345 13.797-0.003 18.75-0.23669 4.953-0.42886 0.56786-0.42711-9.7446zm-31.46-5.625c0-2.4062 0.25725-3.3906 0.57166-2.1875s0.31441 3.1719 0 4.375-0.57166 0.21875-0.57166-2.1875zm-0.19132-14.479c0.06-1.4562 0.35618-1.7524 0.75521-0.75521 0.36109 0.90233 0.31668 1.9805-0.0987 2.3958-0.41536 0.41536-0.7108-0.32292-0.65652-1.6406zm185.99-6.4583c-1.5548-1.9826-1.5106-2.0268 0.47195-0.47195 1.2031 0.94356 2.1875 1.9279 2.1875 2.1875 0 1.0288-1.0265 0.36664-2.6594-1.7156zm-171.09-2.5125c0-0.75168-0.98438-1.6239-2.1875-1.9383-1.9721-0.51537-1.9794-0.58593-0.0738-0.71666 2.2552-0.1547 4.2599 2.0231 3.0114 3.2715-0.41259 0.41259-0.75017 0.13516-0.75017-0.61651z" fill="#f4f4f1"/>
  <path id="path3386" d="m254.06 412.99c0.002-9.625 0.19816-13.397 0.43604-8.3828 0.23787 5.0144 0.23627 12.889-0.004 17.5-0.23987 4.6106-0.43449 0.50781-0.43254-9.1172z" fill="#f4f4f1"/>
  <path id="path3384" d="m254.06 412.99c0.002-9.625 0.19816-13.397 0.43604-8.3828 0.23787 5.0144 0.23627 12.889-0.004 17.5-0.23987 4.6106-0.43449 0.50781-0.43254-9.1172z" fill="#f4f4f1"/>
 </g>
</svg>
