<?xml version="1.0" encoding="UTF-8" standalone="no"?>
<!-- Created with Inkscape (http://www.inkscape.org/) -->
<svg id="svg2" xmlns:rdf="http://www.w3.org/1999/02/22-rdf-syntax-ns#" xmlns="http://www.w3.org/2000/svg" height="16.076mm" width="45.727mm" version="1.1" xmlns:cc="http://creativecommons.org/ns#" xmlns:dc="http://purl.org/dc/elements/1.1/" viewBox="0 0 162.02533 56.96203">
 <metadata id="metadata7">
  <rdf:RDF>
   <cc:Work rdf:about="">
    <dc:format>image/svg+xml</dc:format>
    <dc:type rdf:resource="http://purl.org/dc/dcmitype/StillImage"/>
    <dc:title/>
   </cc:Work>
  </rdf:RDF>
 </metadata>
 <g id="layer1" transform="translate(-126.52 -328.13)">
  <path id="path3440" d="m170.82 381.2v-3.8855l2.8481 0.4045c2.0392 0.28962 2.9619 1.3931 3.2486 3.8855l0.40053 3.481h-3.2486-3.2486v-3.8855zm3.7975 0.088c0-0.69621-0.60324-1.2658-1.3405-1.2658-0.73729 0-0.98848 0.56962-0.5582 1.2658 0.43027 0.6962 1.0335 1.2658 1.3405 1.2658 0.30702 0 0.55821-0.56962 0.55821-1.2658zm8.8608 0c0-2.0886 0.56962-3.7975 1.2658-3.7975 0.69621 0 1.2658 1.7089 1.2658 3.7975s-0.56962 3.7975-1.2658 3.7975c-0.6962 0-1.2658-1.7089-1.2658-3.7975zm9.3185 1.8987c-1.1091-2.8902 0.44379-5.6962 3.1524-5.6962 2.3824 0 4.5437 4.4008 3.2162 6.5488-1.0901 1.7638-5.596 1.1606-6.3685-0.85258zm3.8002-1.2586c-0.3992-1.0403-1.245-1.5706-1.8796-1.1784-1.3273 0.82033-0.2618 3.0698 1.4541 3.0698 0.63326 0 0.82477-0.85116 0.42556-1.8915zm8.4002 0.0675c0-1.6994 0.56962-3.4419 1.2658-3.8722 0.73851-0.45643 1.2658 0.83073 1.2658 3.0898 0 2.1297-0.56963 3.8722-1.2658 3.8722-0.6962 0-1.2658-1.3904-1.2658-3.0898zm10.569 1.2316c0.39218-1.022 0.16832-2.1949-0.49748-2.6064-2.283-1.411-1.2097-3.1304 1.954-3.1304 1.7405 0 3.1646 0.56962 3.1646 1.2658 0 0.6962-0.56962 1.2658-1.2658 1.2658-0.6962 0-1.2658 1.1392-1.2658 2.5316s-0.63056 2.5316-1.4013 2.5316c-0.77068 0-1.0804-0.83619-0.68819-1.8582zm9.6873 0.1927c-0.005-1.6888 2.5425-5.9294 3.5616-5.9294 0.51906 0 1.5564 1.623 2.3051 3.6066l1.3613 3.6066-3.6126-0.12557c-1.9869-0.0691-3.6139-0.59024-3.6155-1.1582zm12.655-2.132c0-2.0886 0.56962-3.7975 1.2658-3.7975 0.6962 0 1.2658 1.3823 1.2658 3.0717 0 1.8611 0.87309 3.2999 2.2152 3.6506 1.3629 0.35616 0.87582 0.63539-1.2658 0.72573l-3.481 0.14683v-3.7975zm-13.924-17.603v-3.679l-2.3888 0.62468c-1.3138 0.34357-2.7886-0.0223-3.2773-0.81288-0.64739-1.0475-1.3431-1.0603-2.5639-0.0471-1.064 0.88305-6.9124 1.2519-16.027 1.0108l-14.351-0.37963-0.0999-3.1646c-0.055-1.7405-0.19737-7.5791-0.31645-12.975l-0.21652-9.8101h-10.127-10.127v13.186 13.186l-18.987 0.13945-18.987 0.13946v-5.0976-5.0976h2.5316c1.4065 0 2.5316 0.84388 2.5316 1.8987v1.8987h10.76 10.759v-3.1646-3.1646h-13.291-13.291v-10.127-10.127h15.308 15.308l0.63144 2.4146 0.63143 2.4146 2.4146-2.4146 2.4146-2.4146h13.228 13.228l1.1073 1.9787 1.1074 1.9787 1.6422-1.9787 1.6422-1.9787h13.706 13.706l1.1073 1.9787 1.1074 1.9787 1.6422-1.9787 1.6422-1.9787h13.809 13.809l0.72163 1.8805 0.72163 1.8805 2.6848-1.8805c1.9522-1.3674 6.235-1.8805 15.694-1.8805h13.009v16.456 16.456h-13.291-13.291v3.1646c0 2.3207-0.6751 3.1646-2.5316 3.1646h-2.5316l0.003-3.481 0.003-3.481-13.294 0.3979-13.294 0.3979v3.0831 3.0831h-3.1646-3.1646v-3.679zm26.582-19.106v-10.127h-10.127-10.127v10.127 10.127h10.127 10.127v-10.127zm32.911 0v-10.127h-10.76-10.759v10.127 10.127h10.759 10.76v-10.127zm-124.06-3.16c0-1.1814-1.1955-1.8987-3.1646-1.8987-2.3207 0-3.1646-0.6751-3.1646-2.5316v-2.5316h-10.759-10.76v3.7546 3.7546l13.608 0.4069c7.4842 0.22379 13.75 0.52787 13.924 0.67573 0.17405 0.14786 0.31646-0.58559 0.31646-1.6299z" fill="#f4f4f1"/>
  <path id="path3438" d="m158.16 344.58c0-0.92827 0.37975-1.308 0.84389-0.84388 0.46413 0.46414 0.46413 1.2236 0 1.6878-0.46414 0.46413-0.84389 0.0844-0.84389-0.84389z" fill="#f4f4f1"/>
 </g>
</svg>
