<?xml version="1.0" encoding="UTF-8" standalone="no"?>
<!-- Created with Inkscape (http://www.inkscape.org/) -->
<svg id="svg2" xmlns:rdf="http://www.w3.org/1999/02/22-rdf-syntax-ns#" xmlns="http://www.w3.org/2000/svg" height="33.855mm" width="218.02mm" version="1.1" xmlns:cc="http://creativecommons.org/ns#" xmlns:dc="http://purl.org/dc/elements/1.1/" viewBox="0 0 772.49999 119.95906">
 <metadata id="metadata7">
  <rdf:RDF>
   <cc:Work rdf:about="">
    <dc:format>image/svg+xml</dc:format>
    <dc:type rdf:resource="http://purl.org/dc/dcmitype/StillImage"/>
    <dc:title/>
   </cc:Work>
  </rdf:RDF>
 </metadata>
 <g id="layer1" transform="translate(-5.1786 -169.68)">
  <path id="path3414" d="m20.804 286.81c-9.9992-5.1775-15.625-13.189-15.625-22.251 0-4.7264 0.2297-5.0498 3.5864-5.0498 3.1381 0 3.6762 0.55328 4.3047 4.4263 1.1313 6.9713 5.3546 12.602 11.843 15.791 4.8332 2.3751 7.9154 2.8958 17.174 2.9012 9.6594 0.006 12.178-0.45377 17.5-3.1919 10.694-5.5018 14.579-16.045 9.1787-24.904-5.244-8.6022-11.319-11.291-28.329-12.537-11.069-0.81-13.684-1.45-18.712-4.56-7.866-4.86-12.646-11.91-13.613-20.08-1.4399-12.15 7.273-24.32 20.691-28.9 6.0094-2.0483 21.158-1.7966 27.786 0.46162 10.62 3.6187 19.84 14.532 19.84 23.485 0 2.9771-0.47515 3.3554-4.2152 3.3554-3.9288 0-4.2679-0.32927-4.9901-4.8456-0.55877-3.4943-2.1472-6.0855-5.6963-9.2918-10.761-9.7221-28.594-9.6042-39.168 0.25912-4.3022 4.013-5.0904 5.5751-5.6261 11.15-0.51842 5.3954-0.12785 7.206 2.3274 10.789 4.8493 7.0771 11.078 9.7323 25.463 10.855 13.632 1.064 19.395 2.8835 25.559 8.0699 11.995 10.093 11.916 29.738-0.1616 39.921-7.0318 5.9291-10.839 6.8474-28.14 6.7876-13.649-0.0472-16.706-0.43257-20.978-2.6442zm101.88-44.801v-47.5h-16.875-16.875v-3.75-3.75h38.125 38.125v3.75 3.75h-17.5-17.5v47.5 47.5h-3.75-3.75v-47.5zm127.5-3.8215v-51.321l25.408 0.38398c25.286 0.38215 25.433 0.40037 30.556 3.7935 16.353 10.832 16.354 36.097 0.00093 46.931-4.7554 3.1504-6.3586 3.457-21.095 4.0345l-15.949 0.625 25.227 22.417c13.875 12.329 25.414 22.876 25.644 23.438 0.22918 0.56133-2.0208 1.0014-5 0.97799-5.2436-0.0412-6.2356-0.77653-31.042-23.007l-25.625-22.965-0.34009 23.007-0.34007 23.007h-3.7224-3.7224v-51.321zm49.61-5.7489c14.381-6.824 14.349-28.37-0.0519-35.341-4.6643-2.258-7.6927-2.5887-23.703-2.5887h-18.355v20 20h18.874c14.979 0 19.774-0.42727 23.237-2.0704zm61.64 9.5704v-47.5h-16.875-16.875v-3.75-3.75h38.125 38.125v3.75 3.75h-16.875-16.875v47.5 47.5h-4.375-4.375v-47.5zm51.25-3.75v-51.25h3.5875c3.861 0 3.715-0.28171 37.416 72.188 4.5559 9.7969 8.6274 17.812 9.0478 17.812 0.42044 0 10.265-20.25 21.876-45 20.332-43.338 21.24-45 24.592-45h3.4807v51.25 51.25h-3.7329-3.7329l-0.32959-40.672-0.32957-40.672-18.882 40.359-18.882 40.359h-4.0507-4.0507l-18.679-39.945c-10.273-21.97-18.797-40.064-18.942-40.21-0.14489-0.14575-0.10075 17.97 0.0983 40.257l0.36162 40.522h-4.4242-4.4242v-51.25zm212.5-0.0715v-51.321l25.408 0.38398c25.286 0.38214 25.433 0.40036 30.556 3.7935 6.9548 4.6066 11.616 12.853 12.379 21.902 0.51836 6.1454 0.0933 8.1841-2.931 14.055-2.3014 4.4678-5.4294 8.1802-8.9526 10.625-5.1662 3.5849-6.1493 3.7865-21.374 4.3827l-15.959 0.625 25.979 23.125 25.979 23.125-5.5574 0.38159-5.5574 0.38159-25.923-23.093-25.923-23.093-0.34009 23.024-0.34007 23.024h-3.7224-3.7224v-51.321zm50.555-6.5123c13.757-7.7921 13.13-28.341-1.061-34.786-4.2388-1.925-8.2907-2.3297-23.557-2.3524l-18.438-0.0274v20 20l19.062-0.0206c17.402-0.0188 19.492-0.26377 23.993-2.8132zm60.695 10.334v-47.5h-16.875-16.875v-3.75-3.75h37.5 37.5v3.75 3.75h-16.25-16.25v47.5 47.5h-4.375-4.375v-47.5zm-590.47 28.161c0.38807-1.0113 10.4-23.933 22.249-50.938 21.004-47.871 21.636-49.108 25.245-49.471 3.1206-0.31383 4.0097 0.2752 5.6602 3.75 6.388 13.449 42.312 95.959 42.312 97.182 0 0.89793-1.5053 1.321-3.8511 1.0824-3.7972-0.38621-4.1256-1.0175-23.438-45.049-10.772-24.561-19.869-44.671-20.214-44.688-0.59467-0.0289-3.4693 6.3555-29.394 65.282l-10.861 24.688h-4.2069c-3.189 0-4.0362-0.44489-3.5013-1.8387zm375.49 0.35541c0.0118-0.90294 9.806-23.86 21.765-51.017l21.743-49.375h3.9894 3.9894l22.283 50.625 22.283 50.625-3.8434 0.40523c-2.23 0.23511-4.278-0.28965-4.8787-1.25-0.56939-0.91038-9.6238-21.202-20.121-45.093s-19.372-43.427-19.721-43.414c-0.34928 0.013-9.4472 20.122-20.218 44.688-19.316 44.056-19.635 44.669-23.438 45.056-2.5562 0.25972-3.8478-0.16144-3.8336-1.25z" fill="#f4f4f1"/>
  <path id="path3412" d="m737 242.01c0-26.469 0.16566-37.297 0.36812-24.062 0.20246 13.234 0.20246 34.891 0 48.125s-0.36812 2.4062-0.36812-24.062zm-52.562-47.812-2.3812-2.8125 2.8125 2.3812c1.5469 1.3097 2.8125 2.5753 2.8125 2.8125 0 1.0003-1.006 0.26183-3.2438-2.3812z" fill="#f4f4f1"/>
  <path id="path3410" d="m737 242.01c0-26.469 0.16566-37.297 0.36812-24.062 0.20246 13.234 0.20246 34.891 0 48.125s-0.36812 2.4062-0.36812-24.062zm-51.977-47.188c-1.5548-1.9826-1.5106-2.0268 0.47195-0.47194 1.2031 0.94355 2.1875 1.9279 2.1875 2.1875 0 1.0288-1.0265 0.36662-2.6594-1.7156z" fill="#f4f4f1"/>
  <g fill="#f4f4f1">
   <path id="path3408" d="m737 242.01c0-26.469 0.16566-37.297 0.36812-24.062 0.20246 13.234 0.20246 34.891 0 48.125s-0.36812 2.4062-0.36812-24.062zm-51.977-47.188c-1.5548-1.9826-1.5106-2.0268 0.47195-0.47194 1.2031 0.94355 2.1875 1.9279 2.1875 2.1875 0 1.0288-1.0265 0.36662-2.6594-1.7156z"/>
   <path id="path3406" d="m737 242.01c0-26.469 0.16566-37.297 0.36812-24.062 0.20246 13.234 0.20246 34.891 0 48.125s-0.36812 2.4062-0.36812-24.062zm-51.977-47.188c-1.5548-1.9826-1.5106-2.0268 0.47195-0.47194 1.2031 0.94355 2.1875 1.9279 2.1875 2.1875 0 1.0288-1.0265 0.36662-2.6594-1.7156z"/>
   <path id="path3404" d="m737 242.01c0-26.469 0.16566-37.297 0.36812-24.062 0.20246 13.234 0.20246 34.891 0 48.125s-0.36812 2.4062-0.36812-24.062zm-51.977-47.188c-1.5548-1.9826-1.5106-2.0268 0.47195-0.47194 1.2031 0.94355 2.1875 1.9279 2.1875 2.1875 0 1.0288-1.0265 0.36662-2.6594-1.7156z"/>
  </g>
  <path id="path3402" d="m737 242.01c0-26.469 0.16566-37.297 0.36812-24.062 0.20246 13.234 0.20246 34.891 0 48.125s-0.36812 2.4062-0.36812-24.062z" fill="#f4f4f1"/>
 </g>
</svg>
