<?xml version="1.0" encoding="UTF-8" standalone="no"?>
<svg
   xmlns:dc="http://purl.org/dc/elements/1.1/"
   xmlns:cc="http://creativecommons.org/ns#"
   xmlns:rdf="http://www.w3.org/1999/02/22-rdf-syntax-ns#"
   xmlns:svg="http://www.w3.org/2000/svg"
   xmlns="http://www.w3.org/2000/svg"
   id="svg3355"
   version="1.1"
   xml:space="preserve"
   width="257.95599"
   height="257.80676"
   viewBox="0 0 257.95599 257.80676"><metadata
     id="metadata3361"><rdf:RDF><cc:Work
         rdf:about=""><dc:format>image/svg+xml</dc:format><dc:type
           rdf:resource="http://purl.org/dc/dcmitype/StillImage" /><dc:title></dc:title></cc:Work></rdf:RDF></metadata><defs
     id="defs3359"><clipPath
       clipPathUnits="userSpaceOnUse"
       id="clipPath3371"><path
         d="M 0,0 792,0 792,612 0,612 0,0 Z"
         id="path3373" /></clipPath><clipPath
       clipPathUnits="userSpaceOnUse"
       id="clipPath3389"><path
         d="M 0,612 792,612 792,0 0,0 0,612 Z"
         id="path3391" /></clipPath><clipPath
       clipPathUnits="userSpaceOnUse"
       id="clipPath3395"><path
         d="M 0,0 792,0 792,612 0,612 0,0 Z"
         id="path3397" /></clipPath><clipPath
       clipPathUnits="userSpaceOnUse"
       id="clipPath3437"><path
         d="M 0,0 792,0 792,612 0,612 0,0 Z"
         id="path3439" /></clipPath><clipPath
       clipPathUnits="userSpaceOnUse"
       id="clipPath3768"><path
         d="m 418.9232,404.173 c -16.377,0 -29.701,13.324 -29.701,29.701 0,6.807 2.363,13.458 6.652,18.728 4.225,5.19 10.135,8.837 16.642,10.269 2.849,0.63 5.673,-1.175 6.3,-4.027 0.628,-2.852 -1.175,-5.672 -4.027,-6.3 -8.687,-1.912 -14.993,-9.764 -14.993,-18.67 0,-10.546 8.581,-19.126 19.127,-19.126 8.952,0 16.61,6.085 18.624,14.797 0.658,2.846 3.5,4.62 6.343,3.961 2.845,-0.658 4.618,-3.497 3.96,-6.342 -1.487,-6.435 -5.151,-12.271 -10.316,-16.432 -5.249,-4.23 -11.858,-6.559 -18.611,-6.559"
         style="fill:#1f3f54;fill-opacity:1;fill-rule:nonzero;stroke:none"
         id="path3770" /></clipPath><clipPath
       clipPathUnits="userSpaceOnUse"
       id="clipPath3772"><path
         d="m 418.9232,404.173 c -16.377,0 -29.701,13.324 -29.701,29.701 0,6.807 2.363,13.458 6.652,18.728 4.225,5.19 10.135,8.837 16.642,10.269 2.849,0.63 5.673,-1.175 6.3,-4.027 0.628,-2.852 -1.175,-5.672 -4.027,-6.3 -8.687,-1.912 -14.993,-9.764 -14.993,-18.67 0,-10.546 8.581,-19.126 19.127,-19.126 8.952,0 16.61,6.085 18.624,14.797 0.658,2.846 3.5,4.62 6.343,3.961 2.845,-0.658 4.618,-3.497 3.96,-6.342 -1.487,-6.435 -5.151,-12.271 -10.316,-16.432 -5.249,-4.23 -11.858,-6.559 -18.611,-6.559"
         style="fill:#1f3f54;fill-opacity:1;fill-rule:nonzero;stroke:none"
         id="path3774" /></clipPath><clipPath
       clipPathUnits="userSpaceOnUse"
       id="clipPath3776"><path
         d="m 418.9232,404.173 c -16.377,0 -29.701,13.324 -29.701,29.701 0,6.807 2.363,13.458 6.652,18.728 4.225,5.19 10.135,8.837 16.642,10.269 2.849,0.63 5.673,-1.175 6.3,-4.027 0.628,-2.852 -1.175,-5.672 -4.027,-6.3 -8.687,-1.912 -14.993,-9.764 -14.993,-18.67 0,-10.546 8.581,-19.126 19.127,-19.126 8.952,0 16.61,6.085 18.624,14.797 0.658,2.846 3.5,4.62 6.343,3.961 2.845,-0.658 4.618,-3.497 3.96,-6.342 -1.487,-6.435 -5.151,-12.271 -10.316,-16.432 -5.249,-4.23 -11.858,-6.559 -18.611,-6.559"
         style="fill:#1f3f54;fill-opacity:1;fill-rule:nonzero;stroke:none"
         id="path3778" /></clipPath><clipPath
       clipPathUnits="userSpaceOnUse"
       id="clipPath3780"><path
         d="m 418.9232,404.173 c -16.377,0 -29.701,13.324 -29.701,29.701 0,6.807 2.363,13.458 6.652,18.728 4.225,5.19 10.135,8.837 16.642,10.269 2.849,0.63 5.673,-1.175 6.3,-4.027 0.628,-2.852 -1.175,-5.672 -4.027,-6.3 -8.687,-1.912 -14.993,-9.764 -14.993,-18.67 0,-10.546 8.581,-19.126 19.127,-19.126 8.952,0 16.61,6.085 18.624,14.797 0.658,2.846 3.5,4.62 6.343,3.961 2.845,-0.658 4.618,-3.497 3.96,-6.342 -1.487,-6.435 -5.151,-12.271 -10.316,-16.432 -5.249,-4.23 -11.858,-6.559 -18.611,-6.559"
         style="fill:#1f3f54;fill-opacity:1;fill-rule:nonzero;stroke:none"
         id="path3782" /></clipPath><clipPath
       clipPathUnits="userSpaceOnUse"
       id="clipPath3784"><path
         d="m 418.9232,404.173 c -16.377,0 -29.701,13.324 -29.701,29.701 0,6.807 2.363,13.458 6.652,18.728 4.225,5.19 10.135,8.837 16.642,10.269 2.849,0.63 5.673,-1.175 6.3,-4.027 0.628,-2.852 -1.175,-5.672 -4.027,-6.3 -8.687,-1.912 -14.993,-9.764 -14.993,-18.67 0,-10.546 8.581,-19.126 19.127,-19.126 8.952,0 16.61,6.085 18.624,14.797 0.658,2.846 3.5,4.62 6.343,3.961 2.845,-0.658 4.618,-3.497 3.96,-6.342 -1.487,-6.435 -5.151,-12.271 -10.316,-16.432 -5.249,-4.23 -11.858,-6.559 -18.611,-6.559"
         style="fill:#1f3f54;fill-opacity:1;fill-rule:nonzero;stroke:none"
         id="path3786" /></clipPath><clipPath
       clipPathUnits="userSpaceOnUse"
       id="clipPath3788"><path
         d="m 698.952,454.0788 0,-41.099 -4.042,0 0,11.368 -26.386,0 0,-11.368 -4.04,0 0,41.099 4.04,0 0,-25.719 26.386,0 0,25.719 4.042,0 z"
         style="fill:#1f3f54;fill-opacity:1;fill-rule:nonzero;stroke:none"
         id="path3790" /></clipPath><clipPath
       clipPathUnits="userSpaceOnUse"
       id="clipPath3792"><path
         d="m 698.952,454.0788 0,-41.099 -4.042,0 0,11.368 -26.386,0 0,-11.368 -4.04,0 0,41.099 4.04,0 0,-25.719 26.386,0 0,25.719 4.042,0 z"
         style="fill:#1f3f54;fill-opacity:1;fill-rule:nonzero;stroke:none"
         id="path3794" /></clipPath><clipPath
       clipPathUnits="userSpaceOnUse"
       id="clipPath3796"><path
         d="m 698.952,454.0788 0,-41.099 -4.042,0 0,11.368 -26.386,0 0,-11.368 -4.04,0 0,41.099 4.04,0 0,-25.719 26.386,0 0,25.719 4.042,0 z"
         style="fill:#1f3f54;fill-opacity:1;fill-rule:nonzero;stroke:none"
         id="path3798" /></clipPath><clipPath
       clipPathUnits="userSpaceOnUse"
       id="clipPath3800"><path
         d="m 698.952,454.0788 0,-41.099 -4.042,0 0,11.368 -26.386,0 0,-11.368 -4.04,0 0,41.099 4.04,0 0,-25.719 26.386,0 0,25.719 4.042,0 z"
         style="fill:#1f3f54;fill-opacity:1;fill-rule:nonzero;stroke:none"
         id="path3802" /></clipPath><clipPath
       clipPathUnits="userSpaceOnUse"
       id="clipPath3804"><path
         d="m 698.952,454.0788 0,-41.099 -4.042,0 0,11.368 -26.386,0 0,-11.368 -4.04,0 0,41.099 4.04,0 0,-25.719 26.386,0 0,25.719 4.042,0 z"
         style="fill:#1f3f54;fill-opacity:1;fill-rule:nonzero;stroke:none"
         id="path3806" /></clipPath><clipPath
       clipPathUnits="userSpaceOnUse"
       id="clipPath3808"><g
         id="g3810"><g
           id="g3812"
           clip-path="url(#clipPath3437)"><text
             transform="matrix(1,0,0,-1,65.1807,204.9043)"
             style="font-variant:normal;font-weight:bold;font-size:12px;font-family:Lato;-inkscape-font-specification:Lato-Bold;writing-mode:lr-tb;fill:#231f20;fill-opacity:1;fill-rule:nonzero;stroke:none"
             id="text3814"><tspan
               x="0 8.04"
               y="0"
               id="tspan3816">C</tspan></text>
<text
             transform="matrix(1,0,0,-1,77.8527,204.9043)"
             style="font-variant:normal;font-weight:300;font-size:12px;font-family:Lato;-inkscape-font-specification:Lato-Light;writing-mode:lr-tb;fill:#231f20;fill-opacity:1;fill-rule:nonzero;stroke:none"
             id="text3818"><tspan
               x="0 6.96"
               y="0"
               id="tspan3820">93</tspan></text>
<text
             transform="matrix(1,0,0,-1,65.1807,190.5043)"
             style="font-variant:normal;font-weight:bold;font-size:12px;font-family:Lato;-inkscape-font-specification:Lato-Bold;writing-mode:lr-tb;fill:#231f20;fill-opacity:1;fill-rule:nonzero;stroke:none"
             id="text3822"><tspan
               x="0 11.16"
               y="0"
               id="tspan3824">M</tspan></text>
<text
             transform="matrix(1,0,0,-1,78.6567,190.5043)"
             style="font-variant:normal;font-weight:300;font-size:12px;font-family:Lato;-inkscape-font-specification:Lato-Light;writing-mode:lr-tb;fill:#231f20;fill-opacity:1;fill-rule:nonzero;stroke:none"
             id="text3826"><tspan
               x="0 6.96"
               y="0"
               id="tspan3828">65</tspan></text>
<text
             transform="matrix(1,0,0,-1,65.1807,176.1043)"
             style="font-variant:normal;font-weight:bold;font-size:12px;font-family:Lato;-inkscape-font-specification:Lato-Bold;writing-mode:lr-tb;fill:#231f20;fill-opacity:1;fill-rule:nonzero;stroke:none"
             id="text3830"><tspan
               x="0 7.848"
               y="0"
               id="tspan3832">Y</tspan></text>
<text
             transform="matrix(1,0,0,-1,77.6607,176.1043)"
             style="font-variant:normal;font-weight:300;font-size:12px;font-family:Lato;-inkscape-font-specification:Lato-Light;writing-mode:lr-tb;fill:#231f20;fill-opacity:1;fill-rule:nonzero;stroke:none"
             id="text3834"><tspan
               x="0 6.96"
               y="0"
               id="tspan3836">47</tspan></text>
<text
             transform="matrix(1,0,0,-1,65.1807,161.7043)"
             style="font-variant:normal;font-weight:bold;font-size:12px;font-family:Lato;-inkscape-font-specification:Lato-Bold;writing-mode:lr-tb;fill:#231f20;fill-opacity:1;fill-rule:nonzero;stroke:none"
             id="text3838"><tspan
               x="0 8.3760004"
               y="0"
               id="tspan3840">K</tspan></text>
<text
             transform="matrix(1,0,0,-1,78.1887,161.7043)"
             style="font-variant:normal;font-weight:300;font-size:12px;font-family:Lato;-inkscape-font-specification:Lato-Light;writing-mode:lr-tb;fill:#231f20;fill-opacity:1;fill-rule:nonzero;stroke:none"
             id="text3842"><tspan
               x="0 6.96"
               y="0"
               id="tspan3844">35</tspan></text>
<text
             transform="matrix(1,0,0,-1,139.3287,204.9043)"
             style="font-variant:normal;font-weight:bold;font-size:12px;font-family:Lato;-inkscape-font-specification:Lato-Bold;writing-mode:lr-tb;fill:#231f20;fill-opacity:1;fill-rule:nonzero;stroke:none"
             id="text3846"><tspan
               x="0 7.8600001"
               y="0"
               id="tspan3848">R</tspan></text>
<text
             transform="matrix(1,0,0,-1,151.8207,204.9043)"
             style="font-variant:normal;font-weight:300;font-size:12px;font-family:Lato;-inkscape-font-specification:Lato-Light;writing-mode:lr-tb;fill:#231f20;fill-opacity:1;fill-rule:nonzero;stroke:none"
             id="text3850"><tspan
               x="0 6.96"
               y="0"
               id="tspan3852">18</tspan></text>
<text
             transform="matrix(1,0,0,-1,139.3287,190.5043)"
             style="font-variant:normal;font-weight:bold;font-size:12px;font-family:Lato;-inkscape-font-specification:Lato-Bold;writing-mode:lr-tb;fill:#231f20;fill-opacity:1;fill-rule:nonzero;stroke:none"
             id="text3854"><tspan
               x="0 8.6759996"
               y="0"
               id="tspan3856">G</tspan></text>
<text
             transform="matrix(1,0,0,-1,152.6367,190.5043)"
             style="font-variant:normal;font-weight:300;font-size:12px;font-family:Lato;-inkscape-font-specification:Lato-Light;writing-mode:lr-tb;fill:#231f20;fill-opacity:1;fill-rule:nonzero;stroke:none"
             id="text3858"><tspan
               x="0 6.96"
               y="0"
               id="tspan3860">68</tspan></text>
<text
             transform="matrix(1,0,0,-1,139.3287,176.1043)"
             style="font-variant:normal;font-weight:bold;font-size:12px;font-family:Lato;-inkscape-font-specification:Lato-Bold;writing-mode:lr-tb;fill:#231f20;fill-opacity:1;fill-rule:nonzero;stroke:none"
             id="text3862"><tspan
               x="0 7.8119998"
               y="0"
               id="tspan3864">B</tspan></text>
<text
             transform="matrix(1,0,0,-1,151.7727,176.1043)"
             style="font-variant:normal;font-weight:300;font-size:12px;font-family:Lato;-inkscape-font-specification:Lato-Light;writing-mode:lr-tb;fill:#231f20;fill-opacity:1;fill-rule:nonzero;stroke:none"
             id="text3866"><tspan
               x="0 6.96"
               y="0"
               id="tspan3868">86</tspan></text>
<text
             transform="matrix(1,0,0,-1,213.4767,204.9043)"
             style="font-variant:normal;font-weight:bold;font-size:12px;font-family:Lato;-inkscape-font-specification:Lato-Bold;writing-mode:lr-tb;fill:#231f20;fill-opacity:1;fill-rule:nonzero;stroke:none"
             id="text3870"><tspan
               x="0 6.96"
               y="0"
               id="tspan3872">#</tspan></text>
<text
             transform="matrix(1,0,0,-1,225.0687,204.9043)"
             style="font-variant:normal;font-weight:300;font-size:12px;font-family:Lato;-inkscape-font-specification:Lato-Light;writing-mode:lr-tb;fill:#231f20;fill-opacity:1;fill-rule:nonzero;stroke:none"
             id="text3874"><tspan
               x="0 6.96 13.92 20.879999 27.84 34.799999"
               y="0"
               id="tspan3876">124456</tspan></text>
<text
             transform="matrix(1,0,0,-1,108.8247,87.5683)"
             style="font-variant:normal;font-weight:bold;font-size:12px;font-family:Lato;-inkscape-font-specification:Lato-Bold;writing-mode:lr-tb;fill:#231f20;fill-opacity:1;fill-rule:nonzero;stroke:none"
             id="text3878"><tspan
               x="0 8.04"
               y="0"
               id="tspan3880">C</tspan></text>
<text
             transform="matrix(1,0,0,-1,121.4967,87.5683)"
             style="font-variant:normal;font-weight:300;font-size:12px;font-family:Lato;-inkscape-font-specification:Lato-Light;writing-mode:lr-tb;fill:#231f20;fill-opacity:1;fill-rule:nonzero;stroke:none"
             id="text3882"><tspan
               x="0 6.96"
               y="0"
               id="tspan3884">60</tspan></text>
<text
             transform="matrix(1,0,0,-1,108.8247,73.1683)"
             style="font-variant:normal;font-weight:bold;font-size:12px;font-family:Lato;-inkscape-font-specification:Lato-Bold;writing-mode:lr-tb;fill:#231f20;fill-opacity:1;fill-rule:nonzero;stroke:none"
             id="text3886"><tspan
               x="0 11.16"
               y="0"
               id="tspan3888">M</tspan></text>
<text
             transform="matrix(1,0,0,-1,122.3007,73.1683)"
             style="font-variant:normal;font-weight:300;font-size:12px;font-family:Lato;-inkscape-font-specification:Lato-Light;writing-mode:lr-tb;fill:#231f20;fill-opacity:1;fill-rule:nonzero;stroke:none"
             id="text3890"><tspan
               x="0"
               y="0"
               id="tspan3892">0</tspan></text>
<text
             transform="matrix(1,0,0,-1,108.8247,58.7683)"
             style="font-variant:normal;font-weight:bold;font-size:12px;font-family:Lato;-inkscape-font-specification:Lato-Bold;writing-mode:lr-tb;fill:#231f20;fill-opacity:1;fill-rule:nonzero;stroke:none"
             id="text3894"><tspan
               x="0 7.848"
               y="0"
               id="tspan3896">Y</tspan></text>
<text
             transform="matrix(1,0,0,-1,121.3047,58.7683)"
             style="font-variant:normal;font-weight:300;font-size:12px;font-family:Lato;-inkscape-font-specification:Lato-Light;writing-mode:lr-tb;fill:#231f20;fill-opacity:1;fill-rule:nonzero;stroke:none"
             id="text3898"><tspan
               x="0 6.96 13.92"
               y="0"
               id="tspan3900">100</tspan></text>
<text
             transform="matrix(1,0,0,-1,108.8247,44.3683)"
             style="font-variant:normal;font-weight:bold;font-size:12px;font-family:Lato;-inkscape-font-specification:Lato-Bold;writing-mode:lr-tb;fill:#231f20;fill-opacity:1;fill-rule:nonzero;stroke:none"
             id="text3902"><tspan
               x="0 8.3760004"
               y="0"
               id="tspan3904">K</tspan></text>
<text
             transform="matrix(1,0,0,-1,121.8327,44.3683)"
             style="font-variant:normal;font-weight:300;font-size:12px;font-family:Lato;-inkscape-font-specification:Lato-Light;writing-mode:lr-tb;fill:#231f20;fill-opacity:1;fill-rule:nonzero;stroke:none"
             id="text3906"><tspan
               x="0"
               y="0"
               id="tspan3908">0</tspan></text>
<text
             transform="matrix(1,0,0,-1,182.9727,87.5683)"
             style="font-variant:normal;font-weight:bold;font-size:12px;font-family:Lato;-inkscape-font-specification:Lato-Bold;writing-mode:lr-tb;fill:#231f20;fill-opacity:1;fill-rule:nonzero;stroke:none"
             id="text3910"><tspan
               x="0 7.8600001"
               y="0"
               id="tspan3912">R</tspan></text>
<text
             transform="matrix(1,0,0,-1,195.4647,87.5683)"
             style="font-variant:normal;font-weight:300;font-size:12px;font-family:Lato;-inkscape-font-specification:Lato-Light;writing-mode:lr-tb;fill:#231f20;fill-opacity:1;fill-rule:nonzero;stroke:none"
             id="text3914"><tspan
               x="0 6.96 13.92"
               y="0"
               id="tspan3916">113</tspan></text>
<text
             transform="matrix(1,0,0,-1,182.9727,73.1683)"
             style="font-variant:normal;font-weight:bold;font-size:12px;font-family:Lato;-inkscape-font-specification:Lato-Bold;writing-mode:lr-tb;fill:#231f20;fill-opacity:1;fill-rule:nonzero;stroke:none"
             id="text3918"><tspan
               x="0 8.6759996"
               y="0"
               id="tspan3920">G</tspan></text>
<text
             transform="matrix(1,0,0,-1,196.2807,73.1683)"
             style="font-variant:normal;font-weight:300;font-size:12px;font-family:Lato;-inkscape-font-specification:Lato-Light;writing-mode:lr-tb;fill:#231f20;fill-opacity:1;fill-rule:nonzero;stroke:none"
             id="text3922"><tspan
               x="0 6.96 13.92"
               y="0"
               id="tspan3924">191</tspan></text>
<text
             transform="matrix(1,0,0,-1,182.9727,58.7683)"
             style="font-variant:normal;font-weight:bold;font-size:12px;font-family:Lato;-inkscape-font-specification:Lato-Bold;writing-mode:lr-tb;fill:#231f20;fill-opacity:1;fill-rule:nonzero;stroke:none"
             id="text3926"><tspan
               x="0 7.8119998"
               y="0"
               id="tspan3928">B</tspan></text>
<text
             transform="matrix(1,0,0,-1,195.4167,58.7683)"
             style="font-variant:normal;font-weight:300;font-size:12px;font-family:Lato;-inkscape-font-specification:Lato-Light;writing-mode:lr-tb;fill:#231f20;fill-opacity:1;fill-rule:nonzero;stroke:none"
             id="text3930"><tspan
               x="0 6.96"
               y="0"
               id="tspan3932">68</tspan></text>
<text
             transform="matrix(1,0,0,-1,257.1207,87.5683)"
             style="font-variant:normal;font-weight:bold;font-size:12px;font-family:Lato;-inkscape-font-specification:Lato-Bold;writing-mode:lr-tb;fill:#231f20;fill-opacity:1;fill-rule:nonzero;stroke:none"
             id="text3934"><tspan
               x="0 6.96"
               y="0"
               id="tspan3936">#</tspan></text>
<text
             transform="matrix(1,0,0,-1,268.7127,87.5683)"
             style="font-variant:normal;font-weight:300;font-size:12px;font-family:Lato;-inkscape-font-specification:Lato-Light;writing-mode:lr-tb;fill:#231f20;fill-opacity:1;fill-rule:nonzero;stroke:none"
             id="text3938"><tspan
               x="0 6.96 13.92 21.612 28.476 35.436001"
               y="0"
               id="tspan3940">71BF44</tspan></text>
<text
             transform="matrix(1,0,0,-1,480.6207,87.5683)"
             style="font-variant:normal;font-weight:bold;font-size:12px;font-family:Lato;-inkscape-font-specification:Lato-Bold;writing-mode:lr-tb;fill:#231f20;fill-opacity:1;fill-rule:nonzero;stroke:none"
             id="text3942"><tspan
               x="0 8.04"
               y="0"
               id="tspan3944">C</tspan></text>
<text
             transform="matrix(1,0,0,-1,493.2927,87.5683)"
             style="font-variant:normal;font-weight:300;font-size:12px;font-family:Lato;-inkscape-font-specification:Lato-Light;writing-mode:lr-tb;fill:#231f20;fill-opacity:1;fill-rule:nonzero;stroke:none"
             id="text3946"><tspan
               x="0"
               y="0"
               id="tspan3948">1</tspan></text>
<text
             transform="matrix(1,0,0,-1,480.6207,73.1683)"
             style="font-variant:normal;font-weight:bold;font-size:12px;font-family:Lato;-inkscape-font-specification:Lato-Bold;writing-mode:lr-tb;fill:#231f20;fill-opacity:1;fill-rule:nonzero;stroke:none"
             id="text3950"><tspan
               x="0 11.16"
               y="0"
               id="tspan3952">M</tspan></text>
<text
             transform="matrix(1,0,0,-1,494.0967,73.1683)"
             style="font-variant:normal;font-weight:300;font-size:12px;font-family:Lato;-inkscape-font-specification:Lato-Light;writing-mode:lr-tb;fill:#231f20;fill-opacity:1;fill-rule:nonzero;stroke:none"
             id="text3954"><tspan
               x="0 6.96"
               y="0"
               id="tspan3956">63</tspan></text>
<text
             transform="matrix(1,0,0,-1,480.6207,58.7683)"
             style="font-variant:normal;font-weight:bold;font-size:12px;font-family:Lato;-inkscape-font-specification:Lato-Bold;writing-mode:lr-tb;fill:#231f20;fill-opacity:1;fill-rule:nonzero;stroke:none"
             id="text3958"><tspan
               x="0 7.848"
               y="0"
               id="tspan3960">Y</tspan></text>
<text
             transform="matrix(1,0,0,-1,493.1007,58.7683)"
             style="font-variant:normal;font-weight:300;font-size:12px;font-family:Lato;-inkscape-font-specification:Lato-Light;writing-mode:lr-tb;fill:#231f20;fill-opacity:1;fill-rule:nonzero;stroke:none"
             id="text3962"><tspan
               x="0 6.96"
               y="0"
               id="tspan3964">92</tspan></text>
<text
             transform="matrix(1,0,0,-1,480.6207,44.3683)"
             style="font-variant:normal;font-weight:bold;font-size:12px;font-family:Lato;-inkscape-font-specification:Lato-Bold;writing-mode:lr-tb;fill:#231f20;fill-opacity:1;fill-rule:nonzero;stroke:none"
             id="text3966"><tspan
               x="0 8.3760004"
               y="0"
               id="tspan3968">K</tspan></text>
<text
             transform="matrix(1,0,0,-1,493.6287,44.3683)"
             style="font-variant:normal;font-weight:300;font-size:12px;font-family:Lato;-inkscape-font-specification:Lato-Light;writing-mode:lr-tb;fill:#231f20;fill-opacity:1;fill-rule:nonzero;stroke:none"
             id="text3970"><tspan
               x="0"
               y="0"
               id="tspan3972">0</tspan></text>
<text
             transform="matrix(1,0,0,-1,554.7687,87.5683)"
             style="font-variant:normal;font-weight:bold;font-size:12px;font-family:Lato;-inkscape-font-specification:Lato-Bold;writing-mode:lr-tb;fill:#231f20;fill-opacity:1;fill-rule:nonzero;stroke:none"
             id="text3974"><tspan
               x="0 7.8600001"
               y="0"
               id="tspan3976">R</tspan></text>
<text
             transform="matrix(1,0,0,-1,567.2607,87.5683)"
             style="font-variant:normal;font-weight:300;font-size:12px;font-family:Lato;-inkscape-font-specification:Lato-Light;writing-mode:lr-tb;fill:#231f20;fill-opacity:1;fill-rule:nonzero;stroke:none"
             id="text3978"><tspan
               x="0 6.96 13.92"
               y="0"
               id="tspan3980">241</tspan></text>
<text
             transform="matrix(1,0,0,-1,554.7687,73.1683)"
             style="font-variant:normal;font-weight:bold;font-size:12px;font-family:Lato;-inkscape-font-specification:Lato-Bold;writing-mode:lr-tb;fill:#231f20;fill-opacity:1;fill-rule:nonzero;stroke:none"
             id="text3982"><tspan
               x="0 8.6759996"
               y="0"
               id="tspan3984">G</tspan></text>
<text
             transform="matrix(1,0,0,-1,568.0767,73.1683)"
             style="font-variant:normal;font-weight:300;font-size:12px;font-family:Lato;-inkscape-font-specification:Lato-Light;writing-mode:lr-tb;fill:#231f20;fill-opacity:1;fill-rule:nonzero;stroke:none"
             id="text3986"><tspan
               x="0 6.96 13.92"
               y="0"
               id="tspan3988">125</tspan></text>
<text
             transform="matrix(1,0,0,-1,554.7687,58.7683)"
             style="font-variant:normal;font-weight:bold;font-size:12px;font-family:Lato;-inkscape-font-specification:Lato-Bold;writing-mode:lr-tb;fill:#231f20;fill-opacity:1;fill-rule:nonzero;stroke:none"
             id="text3990"><tspan
               x="0 7.8119998"
               y="0"
               id="tspan3992">B</tspan></text>
<text
             transform="matrix(1,0,0,-1,567.2127,58.7683)"
             style="font-variant:normal;font-weight:300;font-size:12px;font-family:Lato;-inkscape-font-specification:Lato-Light;writing-mode:lr-tb;fill:#231f20;fill-opacity:1;fill-rule:nonzero;stroke:none"
             id="text3994"><tspan
               x="0 6.96"
               y="0"
               id="tspan3996">47</tspan></text>
<text
             transform="matrix(1,0,0,-1,628.9167,87.5683)"
             style="font-variant:normal;font-weight:bold;font-size:12px;font-family:Lato;-inkscape-font-specification:Lato-Bold;writing-mode:lr-tb;fill:#231f20;fill-opacity:1;fill-rule:nonzero;stroke:none"
             id="text3998"><tspan
               x="0 6.96"
               y="0"
               id="tspan4000">#</tspan></text>
<text
             transform="matrix(1,0,0,-1,640.5087,87.5683)"
             style="font-variant:normal;font-weight:300;font-size:12px;font-family:Lato;-inkscape-font-specification:Lato-Light;writing-mode:lr-tb;fill:#231f20;fill-opacity:1;fill-rule:nonzero;stroke:none"
             id="text4002"><tspan
               x="0 6.8639998 13.824 20.784 29.903999 36.863998"
               y="0"
               id="tspan4004">F17D2F</tspan></text>
<text
             transform="matrix(1,0,0,-1,297.5127,204.9043)"
             style="font-variant:normal;font-weight:bold;font-size:12px;font-family:Lato;-inkscape-font-specification:Lato-Bold;writing-mode:lr-tb;fill:#231f20;fill-opacity:1;fill-rule:nonzero;stroke:none"
             id="text4006"><tspan
               x="0 8.04"
               y="0"
               id="tspan4008">C</tspan></text>
<text
             transform="matrix(1,0,0,-1,310.1847,204.9043)"
             style="font-variant:normal;font-weight:300;font-size:12px;font-family:Lato;-inkscape-font-specification:Lato-Light;writing-mode:lr-tb;fill:#231f20;fill-opacity:1;fill-rule:nonzero;stroke:none"
             id="text4010"><tspan
               x="0 6.96 13.92"
               y="0"
               id="tspan4012">100</tspan></text>
<text
             transform="matrix(1,0,0,-1,297.5127,190.5043)"
             style="font-variant:normal;font-weight:bold;font-size:12px;font-family:Lato;-inkscape-font-specification:Lato-Bold;writing-mode:lr-tb;fill:#231f20;fill-opacity:1;fill-rule:nonzero;stroke:none"
             id="text4014"><tspan
               x="0 11.16"
               y="0"
               id="tspan4016">M</tspan></text>
<text
             transform="matrix(1,0,0,-1,310.9887,190.5043)"
             style="font-variant:normal;font-weight:300;font-size:12px;font-family:Lato;-inkscape-font-specification:Lato-Light;writing-mode:lr-tb;fill:#231f20;fill-opacity:1;fill-rule:nonzero;stroke:none"
             id="text4018"><tspan
               x="0"
               y="0"
               id="tspan4020">0</tspan></text>
<text
             transform="matrix(1,0,0,-1,297.5127,176.1043)"
             style="font-variant:normal;font-weight:bold;font-size:12px;font-family:Lato;-inkscape-font-specification:Lato-Bold;writing-mode:lr-tb;fill:#231f20;fill-opacity:1;fill-rule:nonzero;stroke:none"
             id="text4022"><tspan
               x="0 7.848"
               y="0"
               id="tspan4024">Y</tspan></text>
<text
             transform="matrix(1,0,0,-1,309.9927,176.1043)"
             style="font-variant:normal;font-weight:300;font-size:12px;font-family:Lato;-inkscape-font-specification:Lato-Light;writing-mode:lr-tb;fill:#231f20;fill-opacity:1;fill-rule:nonzero;stroke:none"
             id="text4026"><tspan
               x="0"
               y="0"
               id="tspan4028">0</tspan></text>
<text
             transform="matrix(1,0,0,-1,297.5127,161.7043)"
             style="font-variant:normal;font-weight:bold;font-size:12px;font-family:Lato;-inkscape-font-specification:Lato-Bold;writing-mode:lr-tb;fill:#231f20;fill-opacity:1;fill-rule:nonzero;stroke:none"
             id="text4030"><tspan
               x="0 8.3760004"
               y="0"
               id="tspan4032">K</tspan></text>
<text
             transform="matrix(1,0,0,-1,310.5207,161.7043)"
             style="font-variant:normal;font-weight:300;font-size:12px;font-family:Lato;-inkscape-font-specification:Lato-Light;writing-mode:lr-tb;fill:#231f20;fill-opacity:1;fill-rule:nonzero;stroke:none"
             id="text4034"><tspan
               x="0"
               y="0"
               id="tspan4036">0</tspan></text>
<text
             transform="matrix(1,0,0,-1,371.6247,204.9043)"
             style="font-variant:normal;font-weight:bold;font-size:12px;font-family:Lato;-inkscape-font-specification:Lato-Bold;writing-mode:lr-tb;fill:#231f20;fill-opacity:1;fill-rule:nonzero;stroke:none"
             id="text4038"><tspan
               x="0 7.8600001"
               y="0"
               id="tspan4040">R</tspan></text>
<text
             transform="matrix(1,0,0,-1,384.1167,204.9043)"
             style="font-variant:normal;font-weight:300;font-size:12px;font-family:Lato;-inkscape-font-specification:Lato-Light;writing-mode:lr-tb;fill:#231f20;fill-opacity:1;fill-rule:nonzero;stroke:none"
             id="text4042"><tspan
               x="0"
               y="0"
               id="tspan4044">0</tspan></text>
<text
             transform="matrix(1,0,0,-1,371.6247,190.5043)"
             style="font-variant:normal;font-weight:bold;font-size:12px;font-family:Lato;-inkscape-font-specification:Lato-Bold;writing-mode:lr-tb;fill:#231f20;fill-opacity:1;fill-rule:nonzero;stroke:none"
             id="text4046"><tspan
               x="0 8.6759996"
               y="0"
               id="tspan4048">G</tspan></text>
<text
             transform="matrix(1,0,0,-1,384.9327,190.5043)"
             style="font-variant:normal;font-weight:300;font-size:12px;font-family:Lato;-inkscape-font-specification:Lato-Light;writing-mode:lr-tb;fill:#231f20;fill-opacity:1;fill-rule:nonzero;stroke:none"
             id="text4050"><tspan
               x="0 6.96 13.92"
               y="0"
               id="tspan4052">174</tspan></text>
<text
             transform="matrix(1,0,0,-1,371.6247,176.1043)"
             style="font-variant:normal;font-weight:bold;font-size:12px;font-family:Lato;-inkscape-font-specification:Lato-Bold;writing-mode:lr-tb;fill:#231f20;fill-opacity:1;fill-rule:nonzero;stroke:none"
             id="text4054"><tspan
               x="0 7.8119998"
               y="0"
               id="tspan4056">B</tspan></text>
<text
             transform="matrix(1,0,0,-1,384.0687,176.1043)"
             style="font-variant:normal;font-weight:300;font-size:12px;font-family:Lato;-inkscape-font-specification:Lato-Light;writing-mode:lr-tb;fill:#231f20;fill-opacity:1;fill-rule:nonzero;stroke:none"
             id="text4058"><tspan
               x="0 6.96 13.92"
               y="0"
               id="tspan4060">239</tspan></text>
<text
             transform="matrix(1,0,0,-1,445.7367,204.9043)"
             style="font-variant:normal;font-weight:bold;font-size:12px;font-family:Lato;-inkscape-font-specification:Lato-Bold;writing-mode:lr-tb;fill:#231f20;fill-opacity:1;fill-rule:nonzero;stroke:none"
             id="text4062"><tspan
               x="0 6.96"
               y="0"
               id="tspan4064">#</tspan></text>
<text
             transform="matrix(1,0,0,-1,457.3287,204.9043)"
             style="font-variant:normal;font-weight:300;font-size:12px;font-family:Lato;-inkscape-font-specification:Lato-Light;writing-mode:lr-tb;fill:#231f20;fill-opacity:1;fill-rule:nonzero;stroke:none"
             id="text4066"><tspan
               x="0 6.96 13.92 21.648001 28.74 35.832001"
               y="0"
               id="tspan4068">00AEEF</tspan></text>
<text
             transform="matrix(1,0,0,-1,529.8807,204.9043)"
             style="font-variant:normal;font-weight:bold;font-size:12px;font-family:Lato;-inkscape-font-specification:Lato-Bold;writing-mode:lr-tb;fill:#231f20;fill-opacity:1;fill-rule:nonzero;stroke:none"
             id="text4070"><tspan
               x="0 8.04"
               y="0"
               id="tspan4072">C</tspan></text>
<text
             transform="matrix(1,0,0,-1,542.5527,204.9043)"
             style="font-variant:normal;font-weight:300;font-size:12px;font-family:Lato;-inkscape-font-specification:Lato-Light;writing-mode:lr-tb;fill:#231f20;fill-opacity:1;fill-rule:nonzero;stroke:none"
             id="text4074"><tspan
               x="0 6.96"
               y="0"
               id="tspan4076">40</tspan></text>
<text
             transform="matrix(1,0,0,-1,529.8807,190.5043)"
             style="font-variant:normal;font-weight:bold;font-size:12px;font-family:Lato;-inkscape-font-specification:Lato-Bold;writing-mode:lr-tb;fill:#231f20;fill-opacity:1;fill-rule:nonzero;stroke:none"
             id="text4078"><tspan
               x="0 11.16"
               y="0"
               id="tspan4080">M</tspan></text>
<text
             transform="matrix(1,0,0,-1,543.3567,190.5043)"
             style="font-variant:normal;font-weight:300;font-size:12px;font-family:Lato;-inkscape-font-specification:Lato-Light;writing-mode:lr-tb;fill:#231f20;fill-opacity:1;fill-rule:nonzero;stroke:none"
             id="text4082"><tspan
               x="0"
               y="0"
               id="tspan4084">0</tspan></text>
<text
             transform="matrix(1,0,0,-1,529.8807,176.1043)"
             style="font-variant:normal;font-weight:bold;font-size:12px;font-family:Lato;-inkscape-font-specification:Lato-Bold;writing-mode:lr-tb;fill:#231f20;fill-opacity:1;fill-rule:nonzero;stroke:none"
             id="text4086"><tspan
               x="0 7.848"
               y="0"
               id="tspan4088">Y</tspan></text>
<text
             transform="matrix(1,0,0,-1,542.3607,176.1043)"
             style="font-variant:normal;font-weight:300;font-size:12px;font-family:Lato;-inkscape-font-specification:Lato-Light;writing-mode:lr-tb;fill:#231f20;fill-opacity:1;fill-rule:nonzero;stroke:none"
             id="text4090"><tspan
               x="0"
               y="0"
               id="tspan4092">0</tspan></text>
<text
             transform="matrix(1,0,0,-1,529.8807,161.7043)"
             style="font-variant:normal;font-weight:bold;font-size:12px;font-family:Lato;-inkscape-font-specification:Lato-Bold;writing-mode:lr-tb;fill:#231f20;fill-opacity:1;fill-rule:nonzero;stroke:none"
             id="text4094"><tspan
               x="0 8.3760004"
               y="0"
               id="tspan4096">K</tspan></text>
<text
             transform="matrix(1,0,0,-1,542.8887,161.7043)"
             style="font-variant:normal;font-weight:300;font-size:12px;font-family:Lato;-inkscape-font-specification:Lato-Light;writing-mode:lr-tb;fill:#231f20;fill-opacity:1;fill-rule:nonzero;stroke:none"
             id="text4098"><tspan
               x="0"
               y="0"
               id="tspan4100">0</tspan></text>
<text
             transform="matrix(1,0,0,-1,603.9927,204.9043)"
             style="font-variant:normal;font-weight:bold;font-size:12px;font-family:Lato;-inkscape-font-specification:Lato-Bold;writing-mode:lr-tb;fill:#231f20;fill-opacity:1;fill-rule:nonzero;stroke:none"
             id="text4102"><tspan
               x="0 7.8600001"
               y="0"
               id="tspan4104">R</tspan></text>
<text
             transform="matrix(1,0,0,-1,616.4847,204.9043)"
             style="font-variant:normal;font-weight:300;font-size:12px;font-family:Lato;-inkscape-font-specification:Lato-Light;writing-mode:lr-tb;fill:#231f20;fill-opacity:1;fill-rule:nonzero;stroke:none"
             id="text4106"><tspan
               x="0 6.96 13.92"
               y="0"
               id="tspan4108">142</tspan></text>
<text
             transform="matrix(1,0,0,-1,603.9927,190.5043)"
             style="font-variant:normal;font-weight:bold;font-size:12px;font-family:Lato;-inkscape-font-specification:Lato-Bold;writing-mode:lr-tb;fill:#231f20;fill-opacity:1;fill-rule:nonzero;stroke:none"
             id="text4110"><tspan
               x="0 8.6759996"
               y="0"
               id="tspan4112">G</tspan></text>
<text
             transform="matrix(1,0,0,-1,617.3007,190.5043)"
             style="font-variant:normal;font-weight:300;font-size:12px;font-family:Lato;-inkscape-font-specification:Lato-Light;writing-mode:lr-tb;fill:#231f20;fill-opacity:1;fill-rule:nonzero;stroke:none"
             id="text4114"><tspan
               x="0 6.96 13.92"
               y="0"
               id="tspan4116">216</tspan></text>
<text
             transform="matrix(1,0,0,-1,603.9927,176.1043)"
             style="font-variant:normal;font-weight:bold;font-size:12px;font-family:Lato;-inkscape-font-specification:Lato-Bold;writing-mode:lr-tb;fill:#231f20;fill-opacity:1;fill-rule:nonzero;stroke:none"
             id="text4118"><tspan
               x="0 7.8119998"
               y="0"
               id="tspan4120">B</tspan></text>
<text
             transform="matrix(1,0,0,-1,616.4367,176.1043)"
             style="font-variant:normal;font-weight:300;font-size:12px;font-family:Lato;-inkscape-font-specification:Lato-Light;writing-mode:lr-tb;fill:#231f20;fill-opacity:1;fill-rule:nonzero;stroke:none"
             id="text4122"><tspan
               x="0 6.96 13.92"
               y="0"
               id="tspan4124">216</tspan></text>
<text
             transform="matrix(1,0,0,-1,678.1047,204.9043)"
             style="font-variant:normal;font-weight:bold;font-size:12px;font-family:Lato;-inkscape-font-specification:Lato-Bold;writing-mode:lr-tb;fill:#231f20;fill-opacity:1;fill-rule:nonzero;stroke:none"
             id="text4126"><tspan
               x="0 6.96"
               y="0"
               id="tspan4128">#</tspan></text>
<text
             transform="matrix(1,0,0,-1,689.6967,204.9043)"
             style="font-variant:normal;font-weight:300;font-size:12px;font-family:Lato;-inkscape-font-specification:Lato-Light;writing-mode:lr-tb;fill:#231f20;fill-opacity:1;fill-rule:nonzero;stroke:none"
             id="text4130"><tspan
               x="0 6.96 14.052 23.172001 30.132 36.995998"
               y="0"
               id="tspan4132">8ED8F8</tspan></text>
</g></g></clipPath></defs><g
     id="g3363"
     transform="matrix(1.25,0,0,-1.25,-122.88925,671.02526)"><g
       id="g3365" /><g
       id="g3385"><g
         id="g3387"
         clip-path="url(#clipPath3389)"><g
           id="g3393"
           clip-path="url(#clipPath3395)"><g
             id="g3761"
             transform="translate(-0.66600306,0)"><path
               id="path3399"
               style="fill:#00adef;fill-opacity:1;fill-rule:nonzero;stroke:none"
               d="m 298.9502,447.213 c -3.531,0 -6.392,2.862 -6.392,6.392 0,38.299 -31.159,69.457 -69.457,69.457 -3.531,0 -6.393,2.862 -6.393,6.393 0,3.531 2.862,6.392 6.393,6.392 45.348,0 82.241,-36.894 82.241,-82.242 0,-3.53 -2.861,-6.392 -6.392,-6.392" /><path
               id="path3401"
               style="fill:#00adef;fill-opacity:1;fill-rule:nonzero;stroke:none"
               d="m 261.7791,445.2952 c -1.765,0 -3.196,1.431 -3.196,3.196 0,22.385 -18.211,40.596 -40.596,40.596 -1.765,0 -3.196,1.431 -3.196,3.196 0,1.766 1.431,3.197 3.196,3.197 25.909,0 46.988,-21.079 46.988,-46.989 0,-1.765 -1.431,-3.196 -3.196,-3.196" /><path
               id="path3403"
               style="fill:#00adef;fill-opacity:1;fill-rule:nonzero;stroke:none"
               d="m 249.7897,445.5809 c -1.285,0 -2.327,1.042 -2.327,2.327 0,16.296 -13.257,29.553 -29.553,29.553 -1.285,0 -2.327,1.042 -2.327,2.327 0,1.285 1.042,2.327 2.327,2.327 18.862,0 34.207,-15.345 34.207,-34.207 0,-1.285 -1.042,-2.327 -2.327,-2.327" /><path
               id="path3405"
               style="fill:#00adef;fill-opacity:1;fill-rule:nonzero;stroke:none"
               d="m 279.2197,445.9345 c -2.824,0 -5.114,2.29 -5.114,5.114 0,29.534 -24.028,53.562 -53.562,53.562 -2.824,0 -5.114,2.29 -5.114,5.114 0,2.824 2.29,5.114 5.114,5.114 35.174,0 63.79,-28.617 63.79,-63.79 0,-2.824 -2.29,-5.114 -5.114,-5.114" /><path
               id="path3421"
               style="fill:#1f3f54;fill-opacity:1;fill-rule:nonzero;stroke:none"
               d="m 203.1144,330.5748 c -57.421,0 -104.137,46.716 -104.137,104.137 0,23.866 8.284,47.186 23.325,65.664 14.812,18.197 35.534,30.983 58.349,36.005 9.988,2.208 19.889,-4.122 22.088,-14.121 2.202,-9.998 -4.121,-19.888 -14.12,-22.089 -30.458,-6.703 -52.566,-34.233 -52.566,-65.459 0,-36.978 30.083,-67.061 67.061,-67.061 31.385,0 58.238,21.336 65.3,51.884 2.305,9.977 12.27,16.198 22.237,13.886 9.975,-2.306 16.193,-12.262 13.886,-22.236 -5.215,-22.562 -18.061,-43.023 -36.17,-57.615 -18.403,-14.828 -41.577,-22.995 -65.253,-22.995" /></g></g></g></g></g></svg>